<mxfile host="app.diagrams.net" modified="2022-11-15T09:38:10.780Z" agent="5.0 (Macintosh; Intel Mac OS X 10_15_7) AppleWebKit/537.36 (KHTML, like Gecko) Chrome/107.0.0.0 Safari/537.36" etag="X7GMvNrl4LhmC28ymPU1" version="20.5.3" type="github">
  <diagram id="0hmgflXm12YnEY8ofVmQ" name="Seite-1">
    <mxGraphModel dx="1856" dy="571" grid="1" gridSize="10" guides="1" tooltips="1" connect="1" arrows="1" fold="1" page="1" pageScale="1" pageWidth="827" pageHeight="1169" math="0" shadow="0">
      <root>
        <mxCell id="0" />
        <mxCell id="1" parent="0" />
        <mxCell id="2rFWAWkbC2kj8gGZEwu1-92" value="&lt;font style=&quot;font-size: 32px;&quot;&gt;Wo siehst du den Tröt?&lt;/font&gt;" style="rounded=1;whiteSpace=wrap;html=1;fontFamily=Roboto;fontSource=https%3A%2F%2Ffonts.googleapis.com%2Fcss%3Ffamily%3DRoboto;fontSize=18;verticalAlign=top;align=center;labelBorderColor=none;strokeColor=#595aff;fillColor=none;strokeWidth=4;" parent="1" vertex="1">
          <mxGeometry x="-100" y="40" width="780" height="670" as="geometry" />
        </mxCell>
        <mxCell id="2rFWAWkbC2kj8gGZEwu1-65" style="edgeStyle=orthogonalEdgeStyle;orthogonalLoop=1;jettySize=auto;html=1;entryX=0;entryY=0.5;entryDx=0;entryDy=0;entryPerimeter=0;fontFamily=Roboto;fontSource=https%3A%2F%2Ffonts.googleapis.com%2Fcss%3Ffamily%3DRoboto;fontSize=18;" parent="1" source="2rFWAWkbC2kj8gGZEwu1-56" target="2rFWAWkbC2kj8gGZEwu1-43" edge="1">
          <mxGeometry relative="1" as="geometry" />
        </mxCell>
        <mxCell id="2rFWAWkbC2kj8gGZEwu1-66" value="JA" style="edgeLabel;html=1;align=center;verticalAlign=middle;resizable=0;points=[];fontSize=18;fontFamily=Roboto;" parent="2rFWAWkbC2kj8gGZEwu1-65" vertex="1" connectable="0">
          <mxGeometry x="-0.0295" y="1" relative="1" as="geometry">
            <mxPoint as="offset" />
          </mxGeometry>
        </mxCell>
        <mxCell id="2rFWAWkbC2kj8gGZEwu1-68" value="NEIN" style="edgeStyle=orthogonalEdgeStyle;orthogonalLoop=1;jettySize=auto;html=1;fontFamily=Roboto;fontSource=https%3A%2F%2Ffonts.googleapis.com%2Fcss%3Ffamily%3DRoboto;fontSize=18;entryX=0.5;entryY=0;entryDx=0;entryDy=0;entryPerimeter=0;" parent="1" source="2rFWAWkbC2kj8gGZEwu1-56" target="2rFWAWkbC2kj8gGZEwu1-71" edge="1">
          <mxGeometry relative="1" as="geometry">
            <mxPoint x="190" y="310" as="targetPoint" />
          </mxGeometry>
        </mxCell>
        <mxCell id="2rFWAWkbC2kj8gGZEwu1-56" value="Folgst du @hallo?" style="points=[[0.25,0.25,0],[0.5,0,0],[0.75,0.25,0],[1,0.5,0],[0.75,0.75,0],[0.5,1,0],[0.25,0.75,0],[0,0.5,0]];shape=mxgraph.bpmn.gateway2;verticalLabelPosition=middle;labelBackgroundColor=#ffffff;verticalAlign=middle;align=right;perimeter=rhombusPerimeter;outlineConnect=0;outline=none;symbol=none;gwType=exclusive;fontSize=18;labelPosition=left;fontFamily=Roboto;fontSource=https%3A%2F%2Ffonts.googleapis.com%2Fcss%3Ffamily%3DRoboto;fillColor=#dae8fc;strokeColor=#6c8ebf;" parent="1" vertex="1">
          <mxGeometry x="165" y="220" width="50" height="50" as="geometry" />
        </mxCell>
        <mxCell id="2rFWAWkbC2kj8gGZEwu1-58" value="" style="group" parent="1" vertex="1" connectable="0">
          <mxGeometry x="270" y="224.63" width="320" height="45.370000000000005" as="geometry" />
        </mxCell>
        <mxCell id="2rFWAWkbC2kj8gGZEwu1-43" value="&lt;font style=&quot;font-size: 26px;&quot;&gt;Startseite&lt;/font&gt;" style="points=[[0.25,0,0],[0.5,0,0],[0.75,0,0],[1,0.25,0],[1,0.5,0],[1,0.75,0],[0.75,1,0],[0.5,1,0],[0.25,1,0],[0,0.75,0],[0,0.5,0],[0,0.25,0]];shape=mxgraph.bpmn.task;whiteSpace=wrap;rectStyle=rounded;size=10;html=1;taskMarker=abstract;fontFamily=Roboto;fontSource=https%3A%2F%2Ffonts.googleapis.com%2Fcss%3Ffamily%3DRoboto;fontSize=18;rounded=0;align=left;spacingLeft=40;" parent="2rFWAWkbC2kj8gGZEwu1-58" vertex="1">
          <mxGeometry width="320" height="45.37" as="geometry" />
        </mxCell>
        <mxCell id="2rFWAWkbC2kj8gGZEwu1-44" value="" style="shape=image;verticalLabelPosition=bottom;verticalAlign=top;aspect=fixed;imageAspect=0;image=https://raw.githubusercontent.com/Rush/Font-Awesome-SVG-PNG/3cfbcdaff9818c3e2c07d755d556fe1f34d7cf0d/black/svg/home.svg;rounded=0;" parent="2rFWAWkbC2kj8gGZEwu1-58" vertex="1">
          <mxGeometry x="7.589999999999975" y="7.680000000000007" width="30" height="30" as="geometry" />
        </mxCell>
        <mxCell id="2rFWAWkbC2kj8gGZEwu1-60" value="" style="group" parent="1" vertex="1" connectable="0">
          <mxGeometry x="270" y="322.31" width="320" height="45.370000000000005" as="geometry" />
        </mxCell>
        <mxCell id="2rFWAWkbC2kj8gGZEwu1-47" value="&lt;font style=&quot;font-size: 26px;&quot;&gt;Lokale Zeitleiste&lt;/font&gt;" style="points=[[0.25,0,0],[0.5,0,0],[0.75,0,0],[1,0.25,0],[1,0.5,0],[1,0.75,0],[0.75,1,0],[0.5,1,0],[0.25,1,0],[0,0.75,0],[0,0.5,0],[0,0.25,0]];shape=mxgraph.bpmn.task;whiteSpace=wrap;rectStyle=rounded;size=10;html=1;taskMarker=abstract;fontFamily=Roboto;fontSource=https%3A%2F%2Ffonts.googleapis.com%2Fcss%3Ffamily%3DRoboto;fontSize=18;rounded=0;align=left;spacingLeft=40;" parent="2rFWAWkbC2kj8gGZEwu1-60" vertex="1">
          <mxGeometry width="320" height="45.37" as="geometry" />
        </mxCell>
        <mxCell id="2rFWAWkbC2kj8gGZEwu1-49" value="" style="shape=image;verticalLabelPosition=bottom;verticalAlign=top;aspect=fixed;imageAspect=0;image=https://raw.githubusercontent.com/Rush/Font-Awesome-SVG-PNG/3cfbcdaff9818c3e2c07d755d556fe1f34d7cf0d/black/svg/users.svg;rounded=0;" parent="2rFWAWkbC2kj8gGZEwu1-60" vertex="1">
          <mxGeometry x="9.04000000000002" y="10" width="28.78" height="25.18" as="geometry" />
        </mxCell>
        <mxCell id="2rFWAWkbC2kj8gGZEwu1-61" value="" style="group" parent="1" vertex="1" connectable="0">
          <mxGeometry x="270" y="422.31" width="320" height="45.370000000000005" as="geometry" />
        </mxCell>
        <mxCell id="2rFWAWkbC2kj8gGZEwu1-50" value="&lt;font style=&quot;font-size: 26px;&quot;&gt;Föderierte Zeitleiste&lt;/font&gt;" style="points=[[0.25,0,0],[0.5,0,0],[0.75,0,0],[1,0.25,0],[1,0.5,0],[1,0.75,0],[0.75,1,0],[0.5,1,0],[0.25,1,0],[0,0.75,0],[0,0.5,0],[0,0.25,0]];shape=mxgraph.bpmn.task;whiteSpace=wrap;rectStyle=rounded;size=10;html=1;taskMarker=abstract;fontFamily=Roboto;fontSource=https%3A%2F%2Ffonts.googleapis.com%2Fcss%3Ffamily%3DRoboto;fontSize=18;rounded=0;align=left;spacingLeft=40;" parent="2rFWAWkbC2kj8gGZEwu1-61" vertex="1">
          <mxGeometry width="320" height="45.37" as="geometry" />
        </mxCell>
        <mxCell id="2rFWAWkbC2kj8gGZEwu1-51" value="" style="shape=image;verticalLabelPosition=bottom;verticalAlign=top;aspect=fixed;imageAspect=0;image=https://raw.githubusercontent.com/Rush/Font-Awesome-SVG-PNG/3cfbcdaff9818c3e2c07d755d556fe1f34d7cf0d/black/svg/globe.svg;rounded=0;" parent="2rFWAWkbC2kj8gGZEwu1-61" vertex="1">
          <mxGeometry x="6.240000000000009" y="6.339999999999975" width="32.69" height="32.69" as="geometry" />
        </mxCell>
        <mxCell id="2rFWAWkbC2kj8gGZEwu1-64" value="" style="edgeStyle=orthogonalEdgeStyle;orthogonalLoop=1;jettySize=auto;html=1;exitX=0.5;exitY=1;exitDx=0;exitDy=0;entryX=0.5;entryY=0;entryDx=0;entryDy=0;entryPerimeter=0;fontSize=26;" parent="1" target="2rFWAWkbC2kj8gGZEwu1-56" edge="1">
          <mxGeometry relative="1" as="geometry">
            <mxPoint x="190" y="145.37" as="sourcePoint" />
          </mxGeometry>
        </mxCell>
        <mxCell id="2rFWAWkbC2kj8gGZEwu1-73" value="JA" style="edgeStyle=orthogonalEdgeStyle;orthogonalLoop=1;jettySize=auto;html=1;entryX=0;entryY=0.5;entryDx=0;entryDy=0;entryPerimeter=0;fontFamily=Roboto;fontSource=https%3A%2F%2Ffonts.googleapis.com%2Fcss%3Ffamily%3DRoboto;fontSize=18;" parent="1" source="2rFWAWkbC2kj8gGZEwu1-71" target="2rFWAWkbC2kj8gGZEwu1-47" edge="1">
          <mxGeometry relative="1" as="geometry" />
        </mxCell>
        <mxCell id="2rFWAWkbC2kj8gGZEwu1-76" value="NEIN" style="edgeStyle=orthogonalEdgeStyle;orthogonalLoop=1;jettySize=auto;html=1;fontFamily=Roboto;fontSource=https%3A%2F%2Ffonts.googleapis.com%2Fcss%3Ffamily%3DRoboto;fontSize=18;" parent="1" source="2rFWAWkbC2kj8gGZEwu1-71" target="2rFWAWkbC2kj8gGZEwu1-74" edge="1">
          <mxGeometry relative="1" as="geometry" />
        </mxCell>
        <mxCell id="2rFWAWkbC2kj8gGZEwu1-71" value="Ist @hallo auf &#xa;deiner Instanz?" style="points=[[0.25,0.25,0],[0.5,0,0],[0.75,0.25,0],[1,0.5,0],[0.75,0.75,0],[0.5,1,0],[0.25,0.75,0],[0,0.5,0]];shape=mxgraph.bpmn.gateway2;verticalLabelPosition=middle;labelBackgroundColor=#ffffff;verticalAlign=middle;align=right;perimeter=rhombusPerimeter;outlineConnect=0;outline=none;symbol=none;gwType=exclusive;fontSize=18;labelPosition=left;fontFamily=Roboto;fontSource=https%3A%2F%2Ffonts.googleapis.com%2Fcss%3Ffamily%3DRoboto;fillColor=#dae8fc;strokeColor=#6c8ebf;" parent="1" vertex="1">
          <mxGeometry x="165" y="320" width="50" height="50" as="geometry" />
        </mxCell>
        <mxCell id="2rFWAWkbC2kj8gGZEwu1-81" value="JA" style="edgeStyle=orthogonalEdgeStyle;orthogonalLoop=1;jettySize=auto;html=1;entryX=0;entryY=0.5;entryDx=0;entryDy=0;entryPerimeter=0;fontFamily=Roboto;fontSource=https%3A%2F%2Ffonts.googleapis.com%2Fcss%3Ffamily%3DRoboto;fontSize=18;" parent="1" source="2rFWAWkbC2kj8gGZEwu1-74" target="2rFWAWkbC2kj8gGZEwu1-50" edge="1">
          <mxGeometry relative="1" as="geometry" />
        </mxCell>
        <mxCell id="2rFWAWkbC2kj8gGZEwu1-83" value="NEIN" style="edgeStyle=orthogonalEdgeStyle;orthogonalLoop=1;jettySize=auto;html=1;fontFamily=Roboto;fontSource=https%3A%2F%2Ffonts.googleapis.com%2Fcss%3Ffamily%3DRoboto;fontSize=18;" parent="1" source="2rFWAWkbC2kj8gGZEwu1-74" target="2rFWAWkbC2kj8gGZEwu1-82" edge="1">
          <mxGeometry relative="1" as="geometry" />
        </mxCell>
        <mxCell id="2rFWAWkbC2kj8gGZEwu1-74" value="Folgt jemand aus &#xa;deiner Instanz @hallo?" style="points=[[0.25,0.25,0],[0.5,0,0],[0.75,0.25,0],[1,0.5,0],[0.75,0.75,0],[0.5,1,0],[0.25,0.75,0],[0,0.5,0]];shape=mxgraph.bpmn.gateway2;verticalLabelPosition=middle;labelBackgroundColor=#ffffff;verticalAlign=middle;align=right;perimeter=rhombusPerimeter;outlineConnect=0;outline=none;symbol=none;gwType=exclusive;fontSize=18;labelPosition=left;fontFamily=Roboto;fontSource=https%3A%2F%2Ffonts.googleapis.com%2Fcss%3Ffamily%3DRoboto;fillColor=#dae8fc;strokeColor=#6c8ebf;" parent="1" vertex="1">
          <mxGeometry x="165" y="420" width="50" height="50" as="geometry" />
        </mxCell>
        <mxCell id="2rFWAWkbC2kj8gGZEwu1-84" value="JA" style="edgeStyle=orthogonalEdgeStyle;orthogonalLoop=1;jettySize=auto;html=1;entryX=0.5;entryY=1;entryDx=0;entryDy=0;entryPerimeter=0;fontFamily=Roboto;fontSource=https%3A%2F%2Ffonts.googleapis.com%2Fcss%3Ffamily%3DRoboto;fontSize=18;" parent="1" source="2rFWAWkbC2kj8gGZEwu1-82" target="2rFWAWkbC2kj8gGZEwu1-50" edge="1">
          <mxGeometry relative="1" as="geometry" />
        </mxCell>
        <mxCell id="2rFWAWkbC2kj8gGZEwu1-90" value="NEIN" style="edgeStyle=orthogonalEdgeStyle;orthogonalLoop=1;jettySize=auto;html=1;entryX=0;entryY=0.5;entryDx=0;entryDy=0;entryPerimeter=0;fontFamily=Roboto;fontSource=https%3A%2F%2Ffonts.googleapis.com%2Fcss%3Ffamily%3DRoboto;fontSize=18;" parent="1" source="2rFWAWkbC2kj8gGZEwu1-82" target="2rFWAWkbC2kj8gGZEwu1-88" edge="1">
          <mxGeometry relative="1" as="geometry">
            <Array as="points">
              <mxPoint x="190" y="620" />
            </Array>
          </mxGeometry>
        </mxCell>
        <mxCell id="2rFWAWkbC2kj8gGZEwu1-82" value="Hat jemand aus deiner Instanz &#xa;den Tröt von @hallo geteilt&#xa;oder dessen URL gesucht?" style="points=[[0.25,0.25,0],[0.5,0,0],[0.75,0.25,0],[1,0.5,0],[0.75,0.75,0],[0.5,1,0],[0.25,0.75,0],[0,0.5,0]];shape=mxgraph.bpmn.gateway2;verticalLabelPosition=middle;labelBackgroundColor=#ffffff;verticalAlign=middle;align=right;perimeter=rhombusPerimeter;outlineConnect=0;outline=none;symbol=none;gwType=exclusive;fontSize=18;labelPosition=left;fontFamily=Roboto;fontSource=https%3A%2F%2Ffonts.googleapis.com%2Fcss%3Ffamily%3DRoboto;fillColor=#dae8fc;strokeColor=#6c8ebf;" parent="1" vertex="1">
          <mxGeometry x="165" y="520" width="50" height="50" as="geometry" />
        </mxCell>
        <mxCell id="2rFWAWkbC2kj8gGZEwu1-86" value="" style="shape=image;verticalLabelPosition=bottom;labelBackgroundColor=default;verticalAlign=top;aspect=fixed;imageAspect=0;image=data:image/png,iVBORw0KGgoAAAANSUhEUgAAAooAAADcCAYAAAD3PIBPAAAAAXNSR0IArs4c6QAAAJZlWElmTU0AKgAAAAgABAEaAAUAAAABAAAAPgEbAAUAAAABAAAARgEoAAMAAAABAAIAAIdpAAQAAAABAAAATgAAAAAAAACQAAAAAQAAAJAAAAABAASShgAHAAAAEgAAAISgAQADAAAAAQABAACgAgAEAAAAAQAAAoqgAwAEAAAAAQAAANwAAAAAQVNDSUkAAABTY3JlZW5zaG90+vsiDQAAAAlwSFlzAAAWJQAAFiUBSVIk8AAAAdZpVFh0WE1MOmNvbS5hZG9iZS54bXAAAAAAADx4OnhtcG1ldGEgeG1sbnM6eD0iYWRvYmU6bnM6bWV0YS8iIHg6eG1wdGs9IlhNUCBDb3JlIDYuMC4wIj4KICAgPHJkZjpSREYgeG1sbnM6cmRmPSJodHRwOi8vd3d3LnczLm9yZy8xOTk5LzAyLzIyLXJkZi1zeW50YXgtbnMjIj4KICAgICAgPHJkZjpEZXNjcmlwdGlvbiByZGY6YWJvdXQ9IiIKICAgICAgICAgICAgeG1sbnM6ZXhpZj0iaHR0cDovL25zLmFkb2JlLmNvbS9leGlmLzEuMC8iPgogICAgICAgICA8ZXhpZjpQaXhlbFlEaW1lbnNpb24+MjIwPC9leGlmOlBpeGVsWURpbWVuc2lvbj4KICAgICAgICAgPGV4aWY6UGl4ZWxYRGltZW5zaW9uPjY1MDwvZXhpZjpQaXhlbFhEaW1lbnNpb24+CiAgICAgICAgIDxleGlmOlVzZXJDb21tZW50PlNjcmVlbnNob3Q8L2V4aWY6VXNlckNvbW1lbnQ+CiAgICAgIDwvcmRmOkRlc2NyaXB0aW9uPgogICA8L3JkZjpSREY+CjwveDp4bXBtZXRhPgr5qPaUAAAAHGlET1QAAAACAAAAAAAAAG4AAAAoAAAAbgAAAG4AAGzODvtAiwAAQABJREFUeAHsXQdgFdUWnJCekEpJSOi9dylSpIooIgKCoBQVCzZUsAFiQcVeURBBBBSBD1JEukjvvQcCCQHSgPTe+Gdu2OcmvIRAAgS9V3nb7u7enbd5O3vKHJtL0qCbRkAjoBHQCGgENAIaAY2ARiAXAjaaKOZCRC9qBDQCGgGNgEZAI6AR0AgoBDRR1DeCRkAjoBHQCGgENAIaAY2AVQQ0UbQKi16pEdAIaAQ0AhoBjYBGQCOgiaK+BzQCGgGNgEZAI6AR0AhoBKwioImiVVj0So2ARkAjoBHQCGgENAIaAU0U9T2gEdAIaAQ0AhoBjYBGQCNgFQFNFK3ColdqBDQCGgGNgEZAI6AR0AhooqjvAY2ARkAjoBHQCGgENAIaAasIaKJoFRa9UiOgEdAIaAQ0AhoBjYBGQBNFfQ9oBDQCGgGNgEZAI6AR0AhYRUATRauw6JUaAY2ARkAjoBHQCGgENAKaKOp7QCOgEdAIaAQ0AhoBjYBGwCoCmihahUWv1AhoBDQCGgGNgEZAI6AR0ERR3wMaAY2ARkAjoBHQCGgENAJWEbjtiWJWVhZsbGzUP6tXqFdqBDQCGgGNgEZAI6AR0AhcFwK3PVHEpUsQlqgunqSxRIkSVoG4JP0UqTRvlf3y6m/upudvDQIffvghfv31V8vJZ86ciWbNmlmWe/bsiZMnT6plOzs77Nq1C/b29pbtekYjoBHQCGgENAIagcIhcFsTxYyMDJw6dUpZE2vUqKGQICE0t0sGebxMJs3b9Pw/CAwdOhTp6elqha2tLaZNm3ZV0vXxxx/jwIEDloOMGzcOtWrVsiwXdubZZ5/FpEmTLIdZu3YtOnbsaFmuVq2a+v6NFSkpKXB0dDQW/xXTHbv2IzzignoX6n73XSAhvllt6/Y9OH8hWp373m4dwPuCjX9jy1auQ2ZmFrw83dGuzR03a0j6PBoBjYBG4IYjEBoWgeWr1uNUUIj6/Y2IvABXF2f4+pSBr28ZtG7ZFG1bN5ff4+zfxBs+oDxOcLOeD7clUTQshxO/+RZ/T/8ZpT08UaJ0aQx48Tm0b9/eKqRBQUEIPH4M54JOIeiEkMuMLLTq2hn33Hcf0oVw8gFMF/Z/sfHBn9uympiYCBcXl3zh6Ny5M0jejLZu3TrcddddxmKhp5ooAgOHviRkLUphOePHz+BXrmyhcS3oAR569HnExMSp7nNnfgNvb081n5qWhh69h6l5V1cXLJo7uaCH1P00AhoBjUCxReDIsUD88tsi7NpzUL0Q5zdQby8P9OjeCQ8/dL8YVYr+BZ7k9GjASXRo1zLPYdys58NtSRQNq+GJEyfw9eg30cTLFZ4Ozliw8wDenjkdl8TS8eGECXjn3XewZd0ahBzYibTIcDiJwSwtOQ1JCck4Hp+IviNH4pFHHsn+EuiatkKY8vyG/kUbNFEs+i8z8ORp/L54Jc6cDUXk+YtISEyCs7MTSpfyQjnfsqB1sEXzRlc98c36IbA2EE0UraGi12kENAL/RgTmL1yOqT/PE09JJhwdHFC1akUcFeJ4d5d22LJtD10pSBOvW1patufNwKBGtcoYN/oFZW001l3vlMdeIZbMRUtXy7MjDA4O9vjz92l5Hu5mPR9uS6JoRo0kZ/QbryP91CHcUcEff4UnSdxaADJjYnF/1xao7eOOhIhkBJ6MQFRcrDB/W9gK+FligfSrUB4xQhw9yldGj7695caoqt4irteyaBBYa/sX56QbTRTNd1Th5nfsOoDJU39Vf+RXO5K7W0kMHdQH99/bOc+uN+uHwNoANFG0hopepxHQCPybEODz74NPvsf6jdvVZT3YsxuaNamH8v6+uBgVI+FMDqhcqTxmz12C1X9tsnh4zBiUFM/K+LdfQf26Nc2rCzy/b/8R/G/hMuzcndOSqYligSG03pHEa/kfi3Fi71ZEB4dhy9Y9KOXtgmr+peFZ0gm1KpaDPWxw9GgELl6Mh5OzDTzcnOHs5AAHMRM72pXIdjWLu/nU2WjsC7+IgaNfwwMPPFAosgiGSN5mHmxNFK3fY9e6dvqs+erHxNiPbtkWzRqiYgU/5bYNPn0OxwNP4cyZMMTFJxjd0LVTW7z2ylOWZfOMJopmNPS8RkAjoBEoWgRm/LIAv8xZDJK9N18dfoWnh1a+t977AnuFzPFZeZe4go+JS5iuYXPz8vTA5G/GW0J0zNvymo8Xz+agYSORKB4na00TRWuoFHSdfFkXo6Lw4tABaFyzDDIzXHB0fyCaViyLyhVLwcXJHhcuJiAkOApOTnYScO8E2xI20i9TmZXJ5Gy4nHUJTo72SE7LxPnQBOw6H4kfli2RL9pbMqQvKSJpBPAXZGiHDh1CpUqV4ObmZunOG4sWxp07d6pEi4YNGxaOiFqOXHQzN4Mo8hzBwcEq+YXxov7+/qhSpQrq168v35GT1YspyhjF+Ph4bN++HSEhIUhKSkLNmjVRr149+Pn5FUls6tvvf5XtnpAr8fBww/PPDM43tuTkqRCMGj0BCQmJ6trphv7gnZFX4KCJ4hWQ6BUaAY2ARqBIENi5+wDGvPO5egZ8+O4osSTWv+K4QcFn8NTzYyzrp036SIUR/bFsLTZt2ZnDe9SgXi18+uEblsQ/y055zDD+nL/xRqNx4e7ObbFwySq1ShNFA5lCTJOTk1USxkcffAivC4GoI9bE5JR0ZEiMQWxUsiKJ9nY2SE/LUBmawlWy4wxkOSk5XSyMTsoAmJ6ViSU7jyIlIQOPv/8WHn744cuj4g5QpDF3ssflDmpikMHx742Ho70Dhj//rCKLXG+QsA/HfYALkefxxeSvzLsWi3ljjObBFFUyCy2/n3zyCSh1Q7KWu5UvXx4fffQRBgwYcEVCTVEQRZLCd955B59++mnuU6tlEnfK7jRqdPV4QasHkJXzF63AD1Nnq81VKlfA15+9JZZr6+TXfAwmhbz34Tegu5rtfXFdtLyjsbmL1WQWxjvSVXFOMvOqiEukTq3qcr+55tjP2kKGvCgdO34SR44GCpktKftWQDWJw8nrZagoXM9R4ro5dOQ4wsIjUbZsaTSqX/ua3ritXYdepxHQCGgECosAn3uPPf06zoWGo3/fHhg2tF+eh6TCyvqNOzD9l/n4fMJo+MhvGdux46cwZdpvOHg4wLLvGyOfQeeOd1qW85vh7+Mjj78iVsyGeKj3vRbXddceg9Vu10MUr/f5kN84b9sYRZX5LJa6VStXYP/cqbijRiVEywPU8PoygTlLklrSxVp4SayD7M+pnYMtUhPS8fuGA2hWtzyq+ZZCpvDBXeIStEc6jsq2Fh3vhqtHadSsUwvdunWTgFIHtX9+ZJEgT/xuIh7p8whmzPgZL73+cg7L4UdjP0INv6qo0qo6mjZtWqDj5ffFFeW2G0UUL1y4gMGDB2P58uVXHS6J3KhRo3L0KyxRDAsLQ48ePbBnjwQiX6V99dVXGDFixFV6Xbk5QqRr6DoghhXKl8PU7ydcQXiv3CvnmmdeHAtaGEuWdMWC2d/l2N9sUfzuy3fx2ddTwTdcc6PFmpl3jw/ua15tmedb6+tjP87x5mtsJKF9/plBKmDbWGdMC0MUY2PjMW78l2AWYe7Gc45947krXDy5++lljYBGQCNwoxBgZvOb47INCGXLlMJ7b72sXpzzOx9dzrVqVlUWyOMngpAohoi58//E7r2HLLvVqV0d33w2zrJ8PTPXQxSv9/lQkPHdtkSR+ojJopv30sCH0P+OGohPSYNcjLpmPrTZDIJouJHdypZEZnomMuLSMH3JNtg6i/xI26aISkzG/lNn0btlDdi5u8LG0xPpkvByPjoW246Fo1vfwYowMhvKmvWF5+PDeuzYMXhj1GhM/mQyug24Gw0aNJBBQKyXSXjv1Q/w8D0PYWvwFgx/4VkhsZkocVmXTg32Fn7cKKLYq1cvLF68OMeV1a1bFxUqVMDKlStzrOfC/v37QQuf0QpDFHlN94n0UW6SWrZsWdCKaY08btu2DS1b5i1FYIzLPH3hlXfUWyW//5+nfHqFfA11rmb8+ru8tUaIldFRBUgPHtgbDer/oze5/+BRjHpzgjrsm6OGo1OH1pZTmIkiz2Hc25YOppmXnn8M993T0bQGYq3cj7ff/xp8I86vvf7K0+jSqU2OLtdLFGkpfeyp16wGfZtP0LNHF7wgLnrdNAIaAY3AzUZg3PivQK1Yo/XtdQ+eHjbQWMx3mpqahu0792H8RxOt9pv09XhUr1bJ6raCrLweong9z4eCjIV9bkuiaBC2Lz7+FG4h+1FRrILJKamKrEn0ocjcZJf1UyAIYaDsja0kr5QsUxKO7o5IjkzC9DnrkWaXisc6tsPWgFNIv2SPvl1bwaNaaXHjOQswWTRJIiUpEZ9OX4pO/Yejd+/eVgmesm5KRZh333kXTw9/BgEbT2Bf8G6MGCUWKiGKp0NOY/KEHzGw5yNYufMPjHr7tYJ+PzelnzWieMcdd1glxeYBkViZm1lHMTQ0VMUhmrevXr0aXbp0Uatobbz33ntV7KbR5/PPP8crr7xiLKIwRHH+/Pl46KGHLMfizOzZs5WLm/PR0dHo378/OCajkcTu3btXWZCNdflNaTXr+8hzqkvvB7ph+JOP5Oj+g7gkKLlgrTEgeuzr2fty++Bho5R7tlWLxhg/7h8MzESR/YwYljskSWb7zv2ShbdRXkRSuElty61p2Kv/M5ZA6UoV/dHzvi7KzbFp624skjgYIyCbL0DLFk7LYc28HqLIe+m5l9/GicBgNSa6Tp6RH98mjeqp6+PbN4mx0RgXxGvRTSOgEdAI3EwEeg8YLuFQ2THiPO/IEcNwT9f2BRrCxs078cmXU5AivMNae+7pQeh1f1drmwq07nqIIg98rc+HAg1GOt12RNFwOQccP47PRgzHwPaNEZOUrKyJZNRGo9uZfmiuo8s4U1zQrr6u8K1WBnvWn8Dug8ckE7qEWFocccnNAY/16SKuP2fYOtpK3wxlgUlPk5tALH+ujnb4Zs4a1Ov0EIYNG3aF25gPR55n0vffo2//hxC2/zx+XzoP48T8XMKmBHbu2onVv61Ft/bd8cuS6Rj98WiUKVPGGOotn1ojitczKDNRZMUcM+mj9NAXX3yR47BTp07Fk08+aVk3cODAHCX7CkMU6XL+888/Lce25tpOTU1FxYoVERkZaen3119/oVOnTpbl/GZoKaQ4K9u8X76VpCkPS3da8hgkzeYp1UsozCrmQCxYtFJZwinWOnfWt5b+f674G19NnK5iG5fMn2JZbyaKdNnOmva5SpYxOjDG5eEhIyyWxqW/T1UaYNx+4NAxjHzjQ9W1TGlv/Dr9S3WfGvsy87rPgGeNRdB1UbNGFcvy9RDFWbMXYqb8Y6OsBK2s1I40t8/Ffb5i9Qa1iok///tlYo5xmfvqeY2ARkAjUNQIJAlneKDf0zkO261Le4x6aViOddYW5s5fqvQWrW0z1vUR6yRfkK+3XQ9RvNbnw7WM7bYiisqSKKSPLudBDzyIgU0qwcHZHhlC7JjFLKkjyoJHAOxlPddlJKVj3f4TaFq9PKo3qoD01AxMn/0X7mtZWUrylBbh7TR079YULvJQS01NF3d11uV4xiykiss4Td4YmC3t4eqE1dsOI6t8U7z4yqgcZNEgijNnzsKDfXrhzN5QTJ/+E154+zlFRBYvWozIQ1FoVLcJfl85Fw8P74/GjRurh7uZ3F7LF1eUfW8EUcxvfPwe+e/YsWM5kkgYD7pixQrLrtdLFJnA4uqaM7kjSrLkvbxyEhae6Ouvv8ZLL/2TdWaNUFoGlGvGIHGMTfxp8seWrRcuRmPQEyPVy0Ypby/89MPHcBGxbbbHn3ldxQoy6WXKxA8s+5jdz6v+mGEhTsY52PHzj0ajoSSD5G6PSjC0YRk0kz3GJjKrj61qlYqoLbE1uduzL42zWP9eGD5ELI7/aDpeD1EcIKSV18/2+JCHMEBiJ3M3usH5I20I1376wRto3Khu7m56WSOgEdAI3BAEWJrv6RfG5jg2n8Xvjh2hyvPl2GBa4G8XX76txV6buqFNq2Z4R451ve16iOK1Ph+uZWy3BVEkkSED5BcZI0LaI558Gt7yEKxcvRSq+3rDzsMRGSkZSEuSOEXpw+bs6ayIo12GDb7/bQMa1C2H+9o3xDcL1iE1Mw3VfTxRw6cKOnVsjBJeDkiXbGlaIBVRFBLDGMJ0sTilyptHptwcGWKhLOvljhVbD8Kmyp14/sXnhSzmLH33008/YdCQRxG05yxm/DgdXQd2RocOHfD1F1/Dz64iyvtVxN9b16DbwC5o1qxZDrKpBn2LPqwRxbFjx161bvK3336bwxpntiiaL4XxgD/++CMOHjyIEydO5NjH3K+oiOLJkydRvXp1y6GZPLR7927LsnmG7vPWrf+JCezXrx/mzp1r7pLn/N33D1Fkf0C/njkSSb6dPBNLlq5R+337+duoXaua5Rh0VdNlTRmGj8b/E4Jw9ly4ZOBlL5vL5ZmJYl4l/Iw4SZ6Ex7Qm8cBtzHoOjzivsvw4Brbfl6xUiTScf/apR0CxWaNdK1Ek+b/ngceM3bF80fQ8a6F+8sUUrF67SfV98rGH0a/PvZb99IxGQCOgEbiRCFgjijwfS/G9PfrFHOoTLGN6PDAILJCwdv1Wi3RNfuO7FUSxsM+H/K7ntiCKxgVs3LgR0z77BA3snbDnzFnUq1kWd9SpAo/q3og9F4u4sHjYS1ZzplgFXUu5SsUVdySfS8S3v/wFW1dbVKvgi853N0eNyv6Ijk/C4iWb0apJTUk6qYLkxBRFLEkQL8k/WhEzxPWcoohiduZ0phDWUpLs8tXctXhq3Gdo3pxk7x+yOGvGLAwYNACn9pzGYlFxL9/UV8XEvfPmu2hds51YMF2xYfs6dHyovSInRmyjcX23amqNKBaFPA7jACl7Yy1xxdq1FhVRzE3+7r//fixZssTaKXH69GlUrlzZso2xmTt27LAs5zXDHw8SKbYxEmtorsc55MlXwaLyPj6l8cu0nO72+3o/oSxpLAv16kv/uN0ZZ/jAQ9mi22arYFEQRUrpTJk+x2I5zOuaCksUSUJpSWWjG8TsQs99zv/9vgxTfpqjVlNKgpISumkENAIagZuBgDXXs3FeVlehVM2drZoqQ0BvCc8x9G6Z8Ldm7Waja57TW+F6/s8TxWNHj2LOjB/gHB+Ket6lMWf1PhwMPYcxg7rBv7LE+jmWQPSpizh7OlYkchLRUiRoSom1MUvcytNn/Y3KDaugTfM6EkPmBv+y3ogWa4qDVGgJDYrE+bAY1BEXdoqU8rskCSyKJIr1kIQxQxTZ08TNnZmeoW4YEioG/XPbpNXHMH3eAolBpHh3CWUlW7VsBR4ePBAndpzC38vWw62GEwYNGoRXxd14X7sHxNoJ/LV5NR54vAeaNW2miKlhAc3zjrsJG24EUeQx27Vrh82bc/5RcV2dOnVQqlQphdm0af/UsSwqonjgwIEcLu3u3btj2bJlVpEMCAhA7dr/uHPbtGmDTZuyLV1Wd7i8cs++w0pyhos/iiROZUkUYaNronuvx9V8j+4dMeK5fyxsXGm4FB4d0AtDHumt+hkfxrYvPhpjyYouLFFk7VLG1Jgb7zknR0fJui8h4uPJ6t7m9sISRcpFMJGFjXGZjD3Mq/HH9uMvflCbmQHOa9ZNI6AR0AjcLARyJ7OYz8vfL3qDGDp074OPZz/3KbGnvJvmntbnn33qUfHO3G19YwHWGs+C69FRzH34gnqccu9nXi72FsWIiAg8/9gwlHVNgb+3D+b8uVGsiFXhJkSvU4vq8PT1QNL5BGTGZ2DKH1vFyuiLh7u3QGDYeazdcQzVG1TFkN4dERp+AcHnIpEmlkI/sfRUFJf1WZG+SYpJgn/9corE0YpIEmj8I0FMF7JI17MRu8i4x+TodCxffxj1+z2MIUMGC+EDFi5cCCcbe3TucTeObQ7EtvXbFVGk3MrCH/9E03pNFKlcvWUVnnr9CVXBhTfdv5Uorl27Fp07/xPvRlmaNWvWZEsGXb4DAwMDUaNGDcv9WFREMSEhIUd1nPxcz3SXd+zY0TKGgrqeV0nNz08l642NljNa0NgomTD23Wwr4qsvP6VU9tUG+TAnj7zy4hPofvddxqYcBHPGj5TZ8VHbCkMUzcSNB+P5BvbvmaN4/YTPJmHtuq3qXIUliua3dMZkLv7fP0k56gSmDyYBMRmIrU1riecZc/3xPKbD6lmNgEZAI1AgBHLL4+TeiS/6zz41CLPkt6qGSN188e1PFsti7r65l2+FPM5/2qJIMkU3KAnVr7/+ivBdq9DAtyL+3LoL/e9qrKx54eHR+H3dIcRJTOGAro0QEHoBLqU80LVzc9St7o8//9qBkNNn4GQrsjmZGYgUcuhwyQV31q4Leyn351/XR8nnkBgqYe7LrmcSRPWP5DEjS/rY4EKYlAY8GQNnRxssPRqAn5aukmzpkhgx/AVJihgBL9/SCNxyGls2bUalFv4IPX0Wvna+UkeylOzjihVb/sDYT0bnWbYu9w13M5aJcW4x8cK6nsePH49x48ZZhs94xuefz3bVGitvFFHk8X18fHLEQlKup1y5csapLdPRo0djwoRsDUOuZGwmx361tnnbbrwj+oRsC377XsWvcP63eUvw08z5nMVXn76FenX+IcInTgbj2RHZmOSOJTwVfAZPS5ko3udMZjFaYYji+x9/Zyl0T5JIcpq7FSVR5LFpTTU0G//8fZpIDdnnPqVafm/Ct6DEBJs1aSG1QX9oBDQCGoEbhIBZcDuvU1CIu0b1yuj7YHfJj4gDf7euZlW8VYLb/3miKM9OHD58BLO+GIdXBt+Fke/PQ4qQvT7tG+HAqTAkiQutTPlSCA2JQE3Jbm7YoBrq1qjI2ntixUlCnAhql/fxhqMQvSSxNkVHhGLf8bPwcvRFOT9vuPtmC3EblsRL4npWmblCFCmzQ0ujGBIljjENgQfDYWdrj4i4CBw7GwKXeq3x3IiX8P3n3+CjLz7B+YtRCNkeig071sOvflkc33lELJ/tEZcQjZIuZbDxyBaM//S9vO7LW7L+RhBFVlmhLqLRXn31VVXKz1jmlHI5I0dmx7RxuagsijwWNRLnzZvHWdWsnZ+Z0JUrV85RWpDxiYxTvFozZykzDpHxiGzzFizDjxIPyGaONeRyfiRy+qz5mC1xrbldtoUhiuaMZko1MG4md3vl9Q8s5acKa1HksQ09SM5bc69zPVULHhRdUv6NsX35yVhL6Sq1Qn9oBDQCGoEbjACfe0YJv4Kc6qnHHwbrO7NwAmMVN27ZhQiJy46Swhzmdi0l/Mz7mee169mMxlXm+UWSJF4U8vXc4P744uUe+H3tHmzbtAetpCZubOolMQn7o3Wz2lJj2Q4JkhDg7uos5E6skJdFiF2cHZWVJvR8FBKSUlHG2wOlPUsijRnNIqvDc7BaS7Z7mZZDup6zYxSzRHDbQhSFKYYFRSP8bCz2BIfgrJAMH0mYsc90wLrT5/D5J1/grvs6IfhICCKPRGHN9lU4HRWIro1bSk1pT7HY2SJaMrZTPe3w5NNPqYektSovV4Hkhmy+EURx+vTpePzx7Fg9DtrNzU3VVO7atStCQkKU+PX777+f43pyxwderzwOD5o79pDr3nzzTVWmj/GR+/btwyOPPILjosdpNFaF4fqChAOw5B5L77GZYwoNyyDXs6QeM6LZ+DZKvUODHJnd0rRiM2A6UUpQsrIKK6wYrTBE8e33v8KWbXvUocr5lsXMqZ8Zh1XT76f8Khl8Ky3rhj3WH/373GdZvtasZ+7494Zt+PCT79Ux7OzsMOmb8Zb4Ta7kvUaXz7Yde1Ufli1cOGeSmtcfGgGNgEbgZiJA+TDq3fJ36WqNzwXKmn347kgVu8j+DLehV2bbjn1q9wb1auHTD9+4arGKq51LE8WrIWTazgcoYwJfGi5VUZp5wruUGwY8ORXDhrTHY4/eIw/W1GyCmCQZy/JFl5C+mULyyC6FX8LB3hY79gWKJM0BxJwXORCpYpYirue6DSrisX6dlUg3tRNpecyim5kE0YhTFJLIEoBcxwQXHvBcwEXsOBQEGzdIneiKcBdX8qrVB3DKxhmTfpJ4LGdbHN96UmImU/HeF2+hTk0f9BBilJicBU83D2zaswPDXn0RlStXVuMtCCExwXHDZm8EUQwKCgJFtq+lsT+lbYxWGKLIY7z++utXWDGNY1ubUsanSZMm1jZdsY4lnHr0GabW5y79RIkYEkISpffeegnJ8tIy6cdfLfqC3InVSFhblPfsqNETcPBQgPpxYa1nqusbrTBEcdnKdfhS4mqMRtHt1pLJRws5BcGps2hudK88/cQAy6rrIYrcedizb0o1onPqOHwZ6tOrG+qKCz46Og6L/1iFYNO2yd++n4NIWk6uZzQCGgGNwE1AwFw44WqnY4jW7xJqZPxGU2bsA3kx3rv/sCq4MFlejL29Pa92mKtu10TxqhBld1DSMUL4/iel2ML2SAJI/3YYMW46Qs4k4udvnhM33t9o2qqWkrzJkIcyv0BaAEm++HJA8mMrLunwyGg1dXeUZIOMS4i6EIs5IosTkZSAt0f2E6JpK9ZFEdqWGMQMIZF0P5MYKqsiCSTJo0ztpQTg/oMhwjUzFUnkOYMCzuOreVvw4cSv0VhqRsfHJeLExmAcCTiK/y2fihFDB0l5tWSlJWdn64CNIjD91Xd5Z4IWEJoi73YjiCIHmduqWJCBs7QfLX5shSWKyYL9mDFj8OWXX1711H/88QdYzeVamiGDw9J4UyXz2Whmd66xjlMSNSdxW5w5G6ZWM36PLyKGlTG365edCkMUuT+tnrR+5tWy/16y36Ypek3xa6NdL1GMiLiAl14bn4MYG8c0pjzvJ++/roW2DUD0VCOgEbglCPD5R7K3fuP2q56/412tMfrV4aofK19N+HSS+p0rKS/3499+pchCaDRRvOpXYXQQUhcVjTeHD8UP44dh4oylmD9vPQYO7oLujRrgsx8Xos/ADqhXtQJWbdqHRqKnSLdzJskiSkgmMlPZxaroYKdII7UVuVzC1gZu9g6Y9b/1OBkWiVefvh9JoqFIgkj3s7IoSl8pEK0e4CSJ2SLcWUiUKi0lHe2F/KXBzcUR7327BB36DMXQJwchQ5Jbzh4ORVxwEn5Z+jMqlXOQRJpaYk1MEmuiu4xxIx58/AmVYatIsBDb4tKsEUVWN3F2ds53iPfcc08OjUTKytB9bG5///23SmI5cuSIebWKR/zhhx+Ue5oZ0kZbvnw5eFy2F198EUyCMdqGDRuU5I6xXKtWrRyuY5bkc3BwMDZbpqz2wsSanTuzkycsG2TmqaeeUqUGeaxrbbQS/r4423U7bdJHqFjBTx2CmohMWjkXGm45JOVzvpaSjqwN+rSQN7qijcaM6TdGPaN0u4x1xvTRJ6TqihAvtl9+kljIstmxkMZ2Tl96dTwOHz2hVn024U00alDHspmWz++m/IIVq9arvwNjA62dD/e9T4mBG1nafEs214p+ePAIXJS/Qbb5v35nKR3IiirUg2TLy3VM8suShBSoNSqwqB3kgxndzz8zSNd4NgDRU42ARuCWIzB/0QpMnT7X8uJubUCdOrSGv58v1kmIjfHCX6NaZYwb/UIONQlr+17LOoMosgzq0gVT89y1sM+HPA+ca0OxlMcxiNTbY0ZjYLsK2LT7GNb+thxxdg4YOKQ7WvtXxKS5q3DPg63QrE41rN12QKx+ott3R12JQ0xR7jwbWhXVf+I1VvO8cpkhB5QVLiKvc1rkcrzdSypamcGMZ+V+pkUx24pIgqjc0fLQy3ZDZ5eeYzm/SXPXwNanEd4a8waypFwgiWjIjnPYvms3lm+cg2cHPIR4SaLhF50iwftrDx4STcdZ6mFdXFzOue6FG7p48eJFVZWFRI46ilcjoTdiMMzGZaY1JZf8/PxQvnz5Qo0jVF40hjw5Sg21usgnUBLB3FjKji7YWlI6j2+c5sYazSeljFQ1Ka1XFK4K87GtzZO4BUss7UU5byUhtEbyjbW+Rb2OpJjXamdnK+f2Vwk7RX0OfTyNgEZAI1BYBI4eC8QvcxZJ6dODOV6srR2Xv9v3d++E/n17qIou1vr8W9YVO6JI6xbjC8PCwzH723dgKwTs+IrN6FzTH+/9fRCvjuiDtrWqSJm1TShd3w/9H+wgdRdPY9v+AAzoeRcSxDrIuC+jkSxSFJtEj/9xS5acgySQ5XrSSRDlIUpLomFRpFVSuaClj5HMQpLhTNIn7swpCzagbM22GPXKi0gXw6CtiwMSRDZny4o9+Pbnt+HuZIvBAwYrAurt5YmZi5fgHckAprCzuj4Zj27/DgRoNftzxd/qYoY+2gePPPzAv+PC9FVoBDQCGoH/KAI0AixftQ4s9RcuHp2IyAtSWc1ZWQ19fcuoetBtWzfPs0Tpvw22YkcUaflgAPx3X3+Fg2uWwz8+Fk38PZCRaodNQedRtVMd9GjTQKxCMZi1Yitee7IP5i3dhphLqRg5rBcuRsermER+UaRjYkPM/lRWRfWhNpAokrTJh5pmSXwidRR5fmomZsoyrYz8xzhGCVHE1j3HsXxbMNp0742nhw1FcoaU+JPtbpK5eS44Ag+LJMv9jdwRkyBmS+9qeLBrR2zZuxeeIir90ssvq1jH3HqFanj647ZFgG7Vh6R+M93NbBRpfWH4EBUze9telB64RkAjoBHQCGgELiNQ7Igix0XX812t70T/0mVQr5w7IkQex6WEK0KzkhBd1hmdpBxfvDyYQ8/HIGDvGXHrnsRddzfB6Gd647xkVtpL/FW25U7xQDmijcqA5rrUtDR16cqyyMxmxRXFcki3s1gVlQta1ksoI2yFZqZLvecTQaFYuu4oEh3K4mXRB2zapD5i4uOFJKbDXcS2z0pywssvPItqDnFoXrum6DYCW4IvoGO7NtgRHISZs2drkqhQ/3d+MHt4+Ii3wAw4NoYb9O7ZDd26tgNlafhywHuPb6UsXbd0+d/o1+deJTT970REX5VGQCOgEdAI/FsQKH5EUeotU2/w9Z73Y0jd2riQkITMpDTYSj3nshXcsejQCewOjUSb+tXwRN8OWLRwB/7aexwV65bH+FcHIio2QbmajYcz4wFpJYy4GKtq21aQyil0I7M0X7bJUSR4hBDairua6SWXsjIkuSUJoaER2H80BEdFN9HBqxK6dO+Jzh3awUYYZExcnPSDSoffsHkrPhj9Ku4o54S6VaohLd0eniXdsHzvQQSLnuPiP5aoLN5s4qpdzv+WP5zc10GL4ptvfSJhEIG5NymZHKNaibGxWtWKmPxNTh1JY5ueagQ0AhoBjYBGoLggUKyIoiJTgsyxgADMFu3E9hUqIFZIWwmxxniUdxNpETulnXicNZtLuaBbp+aYNWcjjolL2qOcFz77YIgkjqTjXPhFsfglolHtKkLc0pEoQtt7D5+SqionIR5sDO3fVbKWnZAiGaFpYmGMl2ot50WQ+6JYhE6fjUFYVCpcvcuhXJVauLNtWzSsX1f0HEU0OTZOkUwXJ2cwm3T2r3OxbPZPaFPNB+XL+CMlTcr8CZF0kSzW4IhIhHiUwrSpU1WiS3ER1y4uN96/dRxnz4Xj518WYMfO/aoCSe7rZGZxC9FQHDTwQVQof2VJwdz99bJGQCOgEdAIaARuJQLFiiga2c5LFi/Gxd9no2YpbySlSOawqz3sHG2RISSwBF3FEhe4IeoiPMp4YMHS3fCRTFrfqr547Y2B4jrOVJnPi1ZvxdDenYUMpouEhzOOHQkWKZN1OB9nC5+K5VCpamkp75ciFkJ7XCphjxJ2zvDx90fFKlVRqXJlkTqRjFhxISYmJUqJtwTRZywBD3c3yYi+hE1iRfzhW9FDDDuNbs0aSSJ1CTg42cBPyGz4mQRJgBG3tbgbFx0PwjyRZrGTmEuKgOv230KALz50S/MfNRT577+Y8f7f+tb11WoENAIagX8XAsWKKBqJLL/MmAnfs7vhL6X2EsQymCWl9rKEADIDOSM1A3byAF569BR8ZDv9xamRKTgrRG30m48qTURvWT959ko0rFUJzRvWUMktX36/EDYlq6Bt0+7wqesDrwpecLC1E3kUJ0lWsYeD6CMqN7VYICnUzHq0wkkl08lFacWly/m3btmB32bMQMi+PWheoRyqlvcTqZ1M+ItLvFRpFySIRt7OXSEICY2BHBpbT5zCz38sRd26dS/HTGqy+O/689FXoxHQCGgENAIagX83AsWKKGbH8QFHjhzFtHdG4cW7WyAsQsqMSXILtRCZeUKLHjOWabErIZVXXD1csP/QGewWgeg3Xu4nCQWJcBLSFy6JLj/NX4M3nukDN3H3ff7tfESle2DIg8NRvrk/XIXYpYlwthxUDs+D0+hnIwTPTpIRHFUFDSa2BJ8+i53bd2CdWAbPS8WVGmLFrFe5EhydhWS628LX1w3n5Fzb9wfhYGBodha0VIFxsMvExfg4PDJyLJ588kkVJ6ndzwpm/aER0AhoBDQCGgGNwG2CQLEiisTMSPpYsGABQtYuRI96FZEsItqUoSkhaSckczaXXblpkqVcrozEJs5ZjfptG6H/fXciWpJZ6H729nLDX1LjmbGJrz0t2dBhUXh69CRUrN4SPR/sjVZdmgoztFW1pHlexiqSGMZKIs25M2dxcP8+bNi4Ae5S7cM1Kx01/cqgeiV/OLnawV4KlriWdFBl/QKCIrD34BlwLNUqlUKNimVxITQZcbEXJDM7CXF+9fDZxG911jNB1k0joBHQCGgENAIagdsKgWJHFIme4YJ+8/XXkHZqH7rWqozq5UohTggjrX8kijZi+Svj6YbdASGYtXU/OrVrjL7dWiNZyF5cRBycPZ0l29gdK9btwbrtB3Fvx+Zwy7TFpi0HESVZ1EEx8agiVSK83T2RmJoixC4OTnLczNQ4JMZGw1uqr5yKCIOLS2mMePQepMt/l2zE7S2CirRqZqRlqhrRCZIo4+bsqAino4wpS9Khz4bEIyQkTEhtMnbG2mDu8lXKGiorbqubQw9WI6AR0AhoBDQCGoH/NgLFjiga7ufDh49g87yJaFy7PKbOW41qold4d6OaKHmZlLHGypajp7HjTDgG9++MVRsP4NFedymLY9iRcHhXLgVHdychcU44dvIs/ly3W1Vt8bJzwZHgEGTEO6Oav6dYMONRyt0VZT3dhTR6qKSTjCyJixT3toMQv0VbdsHDpxSef7ijWCsTFUmkIDe3sx40XeIZEjvJyi8ZYlW0ty+BiNBEnD0TI2OJw4bTUZixfI3UyXWXO00Txf/2n5u+eo2ARkAjoBHQCNxeCBQ7osiYQRKqt0a+iP6tfFBSkknSRQdxy74AhIib151ZItIlJCoWLmIxfOSBdnAWOZrJv/6Fof06wkasfUe3B6JuqxpwdHNWbmgXIZfOzg6IS0hGqpLLScG69QEICkhCqZJeSL2UiNCoczhx+iS83VxgL1nUSakJcLR1gIuDPbYdC8KIIV3QuUVtkchJFHIo2oxCFC8JYaR1kSUBhTkyhFLJ40SGJ4hVMUGynROxQTKfP/z1d9SQ6iyGW/32ukX0aDUCGgGNgEZAI6AR+K8iUKyIomFN3L//AP788UMM6tEaF2MoTQNJSHFSRO/EmQgkShJKJf+yqFbBR7KT0+Ho5ICvpq/AiMd7YNfO45izdDMmffoMEqQfE0hIPSMCI2Av/cpVKSPyOamIl+SXC9Gx2L71NCr6VhPLZR0cORmM6fNnwdXRBtUrVoCz7FtbMpujRF9x8Z49eO/5+0WeJ1vAO4tJNeofrYtyBibayD8Kd4eHxuPc2UQ4OqRj87FjGP75ZLQVPUZD/ue/erPp69YIaAQ0AhoBjYBG4PZCoFgRRSM28a3RY9DaNxk1K/uJjmKqcicrkiWM0dHBTpE/Jo+ki0WPyS1eIoczc9EmxAkxdMywQWRkLB4d3BlV/MoiXchb/Pl4RJw4L0LYDjgnVVU2nwhA4KkwDOjdCX17tMLKDXsQEBgp1kN3HA8+g0Y1fHDi+FmUcRKXtJeHWBZtMWf9drRuVRn3tKqnXNCSUiNEUUgiyaIQRZJEMlJbOxuEhsQh7FwCXJxLYEfgUdz70lg8+OCDqo+u9Xx7/YHo0WoENAIaAY2ARuC/jECxIoq0ytF8OGLYYLz8YEOxFkqpvcwM+X4ux/bJdlrvMiVhhITxklj3uIlWQ+Fs2LDrGNpKHejDu4Kx5+w5jH6+D6LF3ZwSnogLIpx94cxFbD0YiFZtKkmZlRL49H8rMPaFfqhWxU8Et21wMiQUx6Wu81npZ5uUicZVKkpllww4ic7ikWBZn3IeIx/pKu7nJEVQaVHMFLKqxs2xy2BIFM8ExeC8nLOkVH/ZGxSARgMexxNPPGFJ0vkv33D62jUCGgGNgEZAI6ARuH0QKFZEkfqIYpuT2slvIjr4EPre00zqJmfHKCoLnmyjZdFeMo9DwqPgIfGEHrKdiS22oqlIvcTk9DSpDZ2FSTNWo1HLaujbvQ1+m78B9etXwZ4tx5Augt1lqrggJiwFy9YfQIOq5ZEiZJSC23HijnZ3cEJVnzIoLRnVqVITWjUhgSwDuGDXTox/tqeS6SFhVZZEIYsqE1s6cux0PZ8+EYXoi8ki1u0ktaJFh/FiNOb9uRze3t7qcLSC6qYR0AhoBDQCGgGNgEaguCNQbIiiik8kWkKigoKCMHX8CAy6twWSpX6y4a4VSqbwTBcr39YDgWjfvLaQRpGkEdJmIwLctOnZ2tlK5rEtEqNTMHXuOrRrXxe7DgQhTQhdz7uaISM6HasP7EXLhlWwesNR+Hp7qPrR3s6uqFepvLJWpkjCCyuxUNCb5NWecY6y/+RVf+G1Yd3gX0oSYKRajKJ7TH6W8xuNHDDo8HkkxKWKRdERe0LOIeDcSTRs2xEfTPxBuZ+LO1HMEIL8xx9/4NSpU+jXrx8qSM1to+3fvx8rV65Ep06d0Lx5c2O1nmoENAIaAY2ARkAj8C9EoFgQRYMkRkVHY+0fixB2KgDRJ4+gWePK8C/nKbGIYqkTQkiCRR3DMKmEcupcJOqLAPYhiTXs0LqOSNMIoZR6zAnxqcrqWNJDqqMIYVy+8SD+3nEMD3S9A/3vb49vZiyHr6cjuouuYmxiIuJi4nAyIBw7D59GpMQydmlcTxFOkkBmM7tIvedjZ0Lh5+WJaWvW47lHOqJx9QoqoUYRPnJEgydenp4+EomkhDQVE7kp4BT2hwSiaeVy6Pjsm7i/5/1qfAb5LY731P/+9z9FEDm2pk2bYvfu3WqY0fL9GFZRrjh37hz8/PzUNv2hEdAIaAQ0AhoBjcC/D4FbThQNkhgdE4PPX30OD1YvI/qFtjgbGYOdJ86hVPlSaN60kohdC/jyQRdzSlo6th06hYbly2PmH9sw5oV7ERmTKKX2glHVswxSGdcoNaBL+bqieh0fhEREo6K/D0LPJ2LGvDV455V+SEmVMoC2wLufz4FDerJI4oi+4ukLeLTznUo/kYk1JUWDccfxU4iKT8A9TRvi6yUr8PQjd6FpzcpIksQZusPZDMJIV7SNuJ7PHI4Ui2KKilH8Wyyfv+/YiVd7t8feeFtMmz8/e69i7H7+4Ycf8Mwzz6hrc3NzQ5wkALHRwlitWjU1z48dO3bgjjvusCzrGY2ARkAjoBHQCGgE/l0IFAOimCVJHll4cdhQPNm4HOzFlZsk5fTshXDZCyncdDgYWU7OaNqoopTPE2YnBOtSJrBl+ymcDDuPv7Yfx/iXe8DG3gYLF+1Ht2YNkJCSAlfRVqS72ElK7dVr5odSZT3x5mcL0Fmsjx3aNFYu5fU7juDnmWvgJ/Wb3eQc9cX17CQWRApnM0N6/8kQHBVrYv+7Wkp/4Ltlq/Hm8HtR2bcMkiXWkfWm2VT8pFgTKb6tiOKhcMTHJCuiuGz3QazeewjP3N8WF9Oz8MDLY9CyZctibVUMDw/HyJEjcUykfd544w089NBDlrv+9ddfx3whu/fddx++/vrrbJJs2Xr1mUSx4l64cEFqZPuqmtp57ZEu7v/Q0FCprlMKJUVsXTeNgEZAI6AR0AhoBG4+AreUKBq6gmPHjoNL+AkMbFULYREXRKi6BIuekBOKOxkYN3s1opOzUL+qP/xKu8PNzhEeQuyYbJKQnIqTFyNRrXppRJ9NwR21qpK54eipEMTK9vOigVi2VEnUqe+PlRuP4Mu3HhfJnTR4S7LKF1MWwTPDDnUriStZZHh4PFoS6RZOl/kFm3bi/lZN4O7sLEky6fhy4XKMeqI72jarLdnOl6RPpoo5VF+bGm+2hfHs4XAkRCeLELgjFm3fjUNngtC5SWN0aFsXe5Lc8dqYt4o1USzq25B1tD///HN8//33OCvJPUZbuHAhevXqZSyq6e+//4633noLR44csax/+eWX8cUXX1iWi/vM+PHjMWfOHDXMDz/8EA888MBNGTLP9euvv6pzcQy9e/e+KefVJ9EIaAQ0AhqBfy8Ct4woGiRx3bp1WLduPVqUTEUVF1sRw04SUWuRnREro7OjHQ4Fh2HM4q1wEDdwUkIKUpJTILVZ4OpgCx+PkmglxJCS2tsDgvHY3W3FqpeBlVLFJTjxEhpVcka/Hk0Ql5iOz39ciSEPdcIDd7dGTGIybOLT8PHEXySZxUeIYkUhnCmSGCNHknM7SjWWoPDz+GnZRjStUQmPdGmNDfsDsHD7LvRv1wLlxT1eu4a/lP4rCVuy2cskkS5oLp4Vi2KiWBTF5Ijf1m8WfcdY1KpYFc8M6oDp649iwnczhQBLR/4rpo3WvB9//BGbN2/G0aNHERsbiypVqijXc58+fdC3b998LYLGZTExpkOHDuo4xjpjumzZMnTv3t1YxOjRozFhwgTLsjFDq6a19cb24jZ96qmnFHYc17Rp0/D4449bhkjSPGTIEPz555949tln8dFHH1m2FXaGx5s0aZI6DMMHOI7bqa1ZswbTp08v1JBfeOEFtGrV6pqOsX37doVVQkICJk6caLknuTx48GB17/K4Y8eOvabjmjsznve1115Tqzw9PfHdd9+ZN+t5jYBGQCNQbBG4ZUSRiNB6N0l+MJkwEbzkZzSvVl6IohAsYV5Zss1BggjPRF7EJ38fQsXqNYQkyjbxAUdJPOO5sAjExSYgNi4eDSv44YMhD0gMYhQW7D2FYSNfRoe72mLd2vUI2vEHOjb2x7vfL8fbL/eXmstuSJSM5NADR7H3+HGs2h+Bx7q2EyuijdJMZAIL6Vt6ViamLF2P+1o2Qq0Kvnj5+9l47/W+yBTL5pEDZ9CkcRW0aF4Dbi7OqpxflhDbNMmEpkTOOak1nRKTgsj4RKzYtUtiITNR2rssXhjaBRMXbcRrn06VJBBfOUu261pmik3jd0KL3tWIWdmyZZX1qkuXLvmOffLkyRg+fLilD2MeBwwYACcJDXj++edVaUNuPHDgABo1amTpxxmKlFevXh133XWXcnXn2HiLFkh8+Y/NQUo9WktKyo8obtq0Ce3atbOMPiQkJEdWuWXDdczc7kSR5In3RGHa7Nmz1f11Lcfg/cn7lI0vNX///beaJ5nv0aOHmudHVFQUvLy8LMvGDF96+QLAZidJd/yXu+3du1f9znG9Oe43dz+9rBHQCGgEihsCt4QoGtbEn8V60L5dG4QJ6QteNA3NxHpHt7AKCBTCxdi/dPkBHvO/DXCpUEmsiPaib+iOeHETlxSiQUa3adtOpMUlYWy/uzF5ySp07vMghj71gtJU9PL2wgfvvYu4gI1Ig7OIa/eRTOc0nD0YhFSp7Xzw7EUs3nZY6Joz7qxbCz5e7nCVutCMPbQvYYvAiHBExydh1c5D6N+7NYYPuFvkejJw+PgZHDoYAmcXB7i5O0sFFkdVYtBHpHZcpdRg6LEI2ImW4/J9RxARFSp1o1NFD9INI5/qgZmrtuPhlyegbt06SqdbJcIUk7uCD7tBgwZh3rx5V4yIxDAyMvKK9bNmzcKjjz56xXpjBUsX0irJRuJH16izuPJzt3fffRfvvPOOWs1zHTp0CGXKlMnd7ZYvDxs2TFkJOZC8rj0/ohgYGGghxyQMERERVvG4ngu93YnilClT8PTTT1/PpVv24b1rjqm1bMhnhlbdN998U/Ughoa1z0zueE/SKmiNBP7yyy/q74YHoLD+1KlTrzib+UVIE8Ur4NErNAIagWKMwC0hisSDlqvnX3gRk77/DpOn/ATsXoEuzesJkUtWblm6gGndKylC2BMWbECEkwdqVyyHi3EJcBM3tJsQxSixPh4LPImI4HPIiIvFp2P6o0p5L2zYFwI7dz8kpF6CO6Jx6uRp1KpeGb3vuxNnTl1EdGAQdgcGYNORs/ATTUQfT19EXJT6zBejRHw7TZKrL6mElnTRcHT3csaAXm3Q5c4GiBXXdwkhkCWFDDI+8VxYFMIvxIj1M0sRTP+yXqqc4JnDYXKeCExctg6d65fDlhNnxFrqhwrlffG/jYcxQa63RYsWxS5OkTFuY8aMsdyutK4wNrBevXrKekaLyvr165XrND4+3tKP8YR16tSxLJtn3N2F2F/uu3jxYvTs2dO82TLfv39/C0F95ZVXVEyjZWMxmnnsscfw888/qxHNnDnTQhDMQ8yPKLIfCQjdnXfffTeqVq1q3rVQ87c7Uczv4un6pVuYjS8V48aNy6/7NW1j4hTd3qnyQtetW7ccxJ2Z/fy+7r333jwtv7wfeF+wMcyA4Qa5G198GjRooFZropgbHb2sEdAIFGcEbjpRNKyJ/PGd8vkEtGrdHEFHd8ErNRP3NKuvYgUNdx77epZ0xs+rd2Bfgg38xV1Lt18ZcR+fF/3DBJHJiY66iAOSWdyyxR0Sk+iIXu1rw1O2R0XHiCh2Onx9SuHTqavQT0hirVpVcFasfadF8mbdgSNC7lxEAscLDaqUR4YQV5K/5FSRvRFLpZO4Fcv6e6BWfT/Y2tshXiqz0JpgI1qNJLFi8BTyZCeZ2SwlmB1TmZCQhKDgcBwTa2OGyO9sORSAzo3KYcaG/RjasQn2nwpHtW59ldWhdOnSxeq+OHnypHLzGoOiZYTJJ3Sv5m6UyWFs4XFx3bOZ3XXmvimSfW62HpIw5pXBbLY8UtCbJKo4tqIgijfqujRRvFHI5n/cghBFKggYL1O0TtKSrJtGQCOgEbgdELhlRPHDd8fhwealJXv5EpZu2IfDkgDydKdmSJGqK4Y7lgTMRTKH9wScxsRNx9CgUT14ijUxXhJPzktsoqO9PSLEHXr+/Hls3LgRGzZtx+q5kzCwSy24uFBS5ZK4slPxjUjgvPZ0L3ETu8E20wa/zdsI31KSPS3l+rKEHMZLPWg2O0lmoRvZ3dMFZSqKZI63ixBT0cURH7e9nb2q/kJ3t/yv3MaKLwqZZWWWNCGSYVIjOjzkAsp5eGDbsWCxNp6Fe0l7bDp2Bo8JUTwrMYttn3hdiFVHZVFljeri0pgw8vHHH6vh8EF2+vRpFUeY1/hWrVqlrC/GdlZsadiwoVqk/E1YWBiSJaaUUkBG27Nnj8V1V6lSJTVPgsr28MMPWzKdmURj7Ed5HGui3nyJoLXnxIkTKtGmdu3a4s6va7Uvj8/+hw8f5qwir4x9ZKMUEAXF6RKuWLEieBzjga46yIdxPVymPNDy5cvVJrrKjcxiJvoYJDg/iyIt6UZGN+M0a9SooY5l7YOhANu2bVPfBa25PEetWrXUPsbLlHk/a0SRVjJeN7Fn4/78njzkHi1ICwgIUPGjdLtWrlxZSmHWV+Owdu+aMeYLBs9FOSRaTzkGYm5OXirI+Y0+12JR5AtJcHCw2pUC8f7+/oqYbd26VWXdt2nTBk2aNDEObZnyfjXw5rh5L9AKyL+H3C1Jku6Me3fBggXKysk+lI0y4nsZOkEZKDbepzVr1lTz5ZaZcfQAACyOSURBVEX/9cyZM2pef2gENAIageKOwE0nimRYtN698uRAfDTiQcxZsh4ZfkImEmJQLfqY+lGm1ZBkka5nxgsmJaXg3YVbUK95E5GlyUBYdKyy4jkKiTx5LBADJTli6FOPK5f1btEsXP3LFxjYrQHI8c5HxWPW4u1468W+UgBQoh6zbDB/yRb07NEKDmIdTJGYyDTRRCSpJFG0lWoujs72qnxfFg8g45D/pWUzRDXL3jQqCkEkmeU0Uwing2Rpx4bFISo4GlNWbESb2qWw5XiwIrRNK/sh09UBKaVr4c13J8g+Mhq5tuLSKKRNSyHbl19+iZdeeinfofG6GzdurEgEO37wwQcqa5nzb7/9Nt577z3O5tnoti1Xrhy6du2aZx9usObKY5IBM0gNwmU+AI/HYxsPaGMbiQ4f0GxMnmLGNcnpunXr1Drzx8CBA/Htt99aqtCQENLdmV9jNRtmgrPlRxRJwCtXrqz65WVZIrZ0s77//vtW40JJdGjtNYi5Oph85CaKJGuGS9Towyldn4yvzE+2h5nu1NI0SLF5f7rL586de0UJRzPG7MNroMvWaIUhSNdCFDk2frdsFI4nzub7kd8Ps8KNxt+bzz77DAy9MMIkjG2cMouacYhmsfm//voLV0vkYmIO7yM2s8W+MDiog+kPjYBGQCNwExG4qUSRD0CSrpMnT2HuxHfxVN/2+GruToz55Bts37EdR2Z/JyX0aqtkFcrHKBImYLhKnOIXSzYjs0x5lY3MyiwkkvaS3HJkzyF89OUX6NK1E2LEDe0tFqjvRQi6fMZR1KtTDUFnIrFwzX689kwvIag8fwns2heI5k1qqCovHJCSqrkMutJQFKsmiSFJofDBy43MkMSQKy8TxMtTij5mj1WmyVInefEOHAg6h25NK+LntVvRQGIrq/p4YX/oeaTAEeMnz0BlIQs8lGE9Nc5yK6bmBAuen0krBUkkIRHgA5yNmbwbNmxQ8zeSKH711VegrmJ+jcRg9erVOYiUmcRwXz6szZqOuY/HxBtqOrLdTKJIiyPJHYnc1Rqv0UxWzETxavtyO62M1ixr/B6Z7WuNNJmPS/L0yCOPWFblxtiy4fJMYQjS9RLF3GPgspko0jJIUsna5ldr5peBayWKtHBWqVJFnYIk2rBGXu2certGQCOgEbjVCNxUokjXVIkSNhI4/hdCd/2BDiIv88u6M3j9vY+ENF3C9+PfQQuHWDhLJQ72ZcuUqVdJF8z8azvWnEtAFRHHTrtMFJkXHXkqUGo434lSNVrAXTQR3T28sHLRXLSpmIZKFcrh/IU4/Lp0B0Y9JUkUNnaKHDKzmlqJtpKYwvOSEmaTNnFFSh1p3zKel78XoYpqg9FHel8mhdnkMMuyzPEK50S61Hh+9cNZaN+wDrxdLuHXDdvRrk4VqRXthpCLMVh18Dx8JIP753kzlaWjOBBFJqh06NBBXfO1BNrz4Wokp5hJADUYKftCV16nTp0uYykZ6iINY7gs6YajxYtB/mzUFjRiHmmFad68uVrv4+NjecCuXbsWnTt3Vuv5QTI3YsQIJVlC6yLnjcxsnpcPc6NZIzF8YNN6SLJFwkBLKsmX0YwShcb1cD2TKIw+dNcbVjm6KamPx1YYi2JuiRhmoVPLr0KFCqAbmNm5hiWVhJjZtMSIzRpRpOYlx0hrGF3ATBQyGt2kS5cuNRbVlPjRRWyQRLrzmRVMkkM3PUmzkcXOe4Xfs3Hd1jDmQZkgQqsc+13NUp1jMKaFwhJFjvX+++9X7nBawo37dtSoUTkSp5588klV55yYMpyCLz2GpZ3DCQoKUi951Fg07t1FixZZwjZ4rcSIjSETDGdgo6vZmOe9z+9SN42ARkAjcDsgcFOJIq0lJAq/zPoFpZIC0LpJdcxetgNZXjVRV2Kftm7ZiktHt2Jgp5ZSXzlRKrTYKuFtNxcnbDp4XPQUD6BNqxYivJ2o+Fu6uIYvnA7E16/cg4vxqTgh8YHpYjWsXM4T1Sr6SjJLhpTks8dHU5Zh2MOdUbmCH1LTM9Vxyf9oSVR0VCyDrKJy+ESIymLuemej7KQa2S7cTwim8EXpqEil7Ei3MeMSOVWWRJmSvJb2Kolvfl6BaEmk6Vy3vsRPRmDJzr24o0Z5lHZzVXT0WKYrWna9D7UlfqtV69Zq/1tNFmkp6devn7pf6ZZlzF5BGi1SzZo1s3QlFuZGouji4mJZxexSa/Ii7GBOZqFFy6w1yO28d/iANR7aJBwkduZGIsM+BskhsezYsaPqkpvEkCTuEo1Lsy4eXZDUcjSI2DfffGOxmBrnobWPyQts15P1nJ/rmTW1zbGDrK6SW+SZhJb1tY0xMivdsLDmJop0T5s1LDlmll80y8fk/s7M8j88D13z5u+QGNG9z/Vs5gzkgmCsdrqOj8IQRd7bv/322xWal+ZMZA6JLyi5dRwZG0pCzdhFNh6Lrm1zK0gyC182GCvJRvJtxMuaj6PnNQIaAY1AcUTgphLFbItiCUyb8iNquYjlorIvkkXi5vip04iOTUK5Mu5YsfEgWvn6o3YlX5W0QlewnfyLEXI4+tdVsBGroZuXBzxKukot50yRoTmDvvc0w53VXVHOt7RIXKSJFRIq45lkzq2kE9ZsOYKDAecw7sU+4rq2RUpaprL+lRA3tCKBQnBKujpjwYqtaFirEqpWKocUOY4EEUqlF0UlpdtlV7giibQkZv9jbGKqJB2UdnfB5r0B+GbWSnwwvBeiLyQjVeR05v29BdV8vVHO201dx/6QSLz/2x8qho4P6VtNEnlTMl6LsVxsZperWpHPh/nhx260sri6ulr2KEqiyGSl9u3bq2PTkkbCaD6XcdJPP/3UUgHDHCOWm8TQemktkcSsqWeNjN5IomiOreM10gplLeuccYNG7J/5+zITxbz0/Ej07CUJzGjMvuW52JjAYSTkcHnfvn1XiKBzPUlTa3nJYTNbx3JjTDKbOzFI7XQdH9dLFDk+vtBYu1fMlYDye0Ey6yly6IzfpAXZaAUhinyJYUwuG2NLaa3UTSOgEdAI3A4I3DSiSJKYmZkhFkU7TJYKDA08Y1Gtkg8SEpNFioYPLhKvTEk+icaM2evxaLtmKuM5TeIF6dK1F4mac4dDsSsgBEdioxEoBBOOTmIlsMMPM2Zi5fzpaFwmWSR0fJR1j5ZLEjGSxZKujpi1cBvORFzEkD53oXb1SmocjFnMEFbJus6uUmHl53lrcPddTVFK3MQsIWgjbnJlurxsKePxlDVRCCq1EzNkbPa2NnB1ssOGnUfx+axlGDP0XpT1cFfWzKSUZLw9cRFa1S6PGkIWmUwTGROPaj0exRMSUE9MDFfsrbxZWPaNJIONrkpanQrSmA1sjmWkJc9MNIqSKJqzss0EMPc4zSSGGbZMWmEzk5j83Ou0PNEdzWbNenQjiSLFpik6zWa21KkVpg9aHukSZaOViu5TNjNRzK+EH93YRnwmrWrUyWQzVyIxE0C10fSRm2xymfdxQTE2HarAs9dLFBl/yO/UWmNWthHuwNrc1PLMq91zzz2gbBMb/z74d2K0ghBFKjMYhDw/UmocU081AhoBjUBxQeCGEUXDevjPhdItKcRL2kRJNmkoRLF6lXJihUqScL9sksgHjqtkDu8/HoJVq/bhue7tRPwaYGG8uLOxiJeMYrqIHTLj8aNUZPGtWU/K+cVi0Dvvo3HTOzDp/ZHo3qS01FgW4nnZWqfInZy6pIsjtuwNxMY9x+FTxgtVJH6xgl8ZlC3liTJSUeWoVFvZuzsQvfu0hZe7q1gU0xWRyxQymT0+IYlCDnk8UVIU66C4rYX4Bp4Ok2SZXTgceAZP92mPunJNF6IS5BguWLntEDZuOYwW1ctLJRkHleVMS2WYVxVM/HGqOr41mRMF0k38MD/oGEtGGZGCNLPkB/vndi0XJVE0C3IzHtJaEgbHQLJquEXNSQMFJTFmN/zNJopMICFZY8udKKJWXuWjoETRnOFuJoq5yy0ypi+vZk7+IOkkYS0oxnkdM7/1RU0U1d+xeCqMRlcwXcJ5NbP1kfI3fHExmvnvx1qWPvtFR0dbsuiv5W/MOIeeagQ0AhqBW4XADSOKuS+IiQW7t2yGrVgB7RwdUdf1AupJ7B4tipcUUWTcn4heSxybq5M99orlcOumADzcpilKJGbgXGCEWC1KQHgbHC/FYfXxk8jwrYQ6Zb1xyNYNr45+E7N/nIyWfkkS3F/6cj1ecRiLOZIPBUrtMNaR0jxBZy/gbEQULsYkISY+ReLm7BESdhF2Ip3T4o7aqFCulOgfusBTCCMJpi1lc3gcIYp0bUeL2HdgUBiOBp7FmbALqFqhFLq1qqdiHqnbSDd1oiTMTJq9Bp1qV0CquKdpubQTayprWO9NtMOcP5crMqvMpbnBusnLZlcmrR4FFQM2Z35as9IVJVE0xzBeCzz87tkKSmJuJVFkvKehd0iyyxrX19IKSxSZhHE1GSBr42GsJ8deUIytHeNq64qaKJqJG88dI/XjzfGhucdjDs/I7dYvCFGMjY21JP1Q3oiJXbppBDQCGoHbAYEbRhTpAmR8EkWF33p1JBpXdELdauUx6pPZqFSjllj+yqBVI8muFKLInGPDqkgilS4uXfeSzjh2Olx03PaioY07akr8YaaQtaTUJNhmxGL7mTCcL1ka3Zs2wF/7DmHp7sMY0qslHn+wDS7GJgrpFA1GIZYGUSBhpJWTVk0nsVra20lFFfkvTRJeYuOTJHklDReiExAsJDJStBdVzWnpS1e5w+W+0YnxcJBMaRchlj6l3FCrYllU8S8NB9FejIkTF7okzhw+GSqudDtsP3gKadFxqC6kM1l0Gpk4wzHQhrH1fCrmr/n7iuD6W3XD5I7BIsHj93a1Nl1qddOCwmYt7upGEUWSUrpPr9Z4DUZiTkFJzK0kiozBZCwmG0m4OWP8atfK7YUlirlljfKzsJnHQ8zYt6AYm/ct6HxRE8XcVYPozud9lVdj4pSRMT506FDw3jdaQYgi43eN45ulpIxj6KlGQCOgESiuCBQpUTTczZQVmT7hLfjWagJHyfbtVscNdWpWQJhIz+xbvxf7Dx6CX+0aePCepoi8GKeMatmZxBL7J2RO+JSywLmKmzlGiOSfa/YiITAGtd094eWUKrIzdph/5LQcoz5qlCsthMtWSvrFYv2RAElQKIOHujeX0nxSwSWRtZn/sSqavwQSSNqaSOBIKCnsbSdTim5zG+MWmTWdTEFumaaKK5pTR4mVpGXSSabpkkGdnJLtouZx6EZ+f+pSKTHoiPTEdLQSi2miWCCldLQcM/ufo10JrA26iN9W/w3WQS4OjZm05mD//Goym8fLB+aMGTPUKmbXMsvW3IqSKJpjA1lL1yCo5vPlN19QEnMriaI54zivjOr8rrGwRJHnpEwRG2V5uHwtraAYX8sxjb5FTRR5XHOs5tVcz8wsp4YnGyWKKM5ttIIQRfPfGCV0VqxYYeyupxoBjYBGoFgjUKRE0ZC/4QOmLsLx3S8r4Obnjs9GDUaIiE07iEs562ISZs/9A17VfODv4w2/sl7KAkeCSM1ERjEamcB015ZkST03ZxwKCsWmbUcRGRyJKIlVLONfDq3r1xY5nExhYJLsIgSP++0KCEJkisjTtKuDtk1rZJM8sVCSCHK7YWG09q1kkzkhkDJDgqlIpoyIY2LySpb4vTPlWGniSuZy9hYhtbLs7uqExesOYOaibfAv7YReLeuo2tHUXcyW0pFByvmdxPq4MfgCpi5dhVKlS6mxG9drbUw3ax2Fk2fPnq1OV5AYKrPMC3ei+5oB/+ZWlETxk08+UeXzeHxmaDMB51paQUnMrSSKLKFoxL6xVCAzsK01lvYzKqZQ3sfIBi8sUTQnAjG+k0Ls13JvFhRja9d0tXU3giiaY0JpIeSLj7XG3wNzFaKpU6eqeu1G34IQRaOvnmoENAIagdsNgSIlioZFkdmB8YfXwjvDHpc87FGnfiUpk5euiJKLgwPe/fRXJGcmI0rcteOG36dIHmMHWWeZjZY8e7HuOYgr9+S58xILGIboyDgR0wMCzkZKtZUo9GzTDBWFaEnSsbJC0hJIQkcrZFRcIjYfOQ73Mk5itWyCsiJNEy9SNSSCtB6yGYTReBAay2qj6YPrVYk+sR6SHKplOY7qL1OSRA+xMG4+dBJbtgehvIgKZ2XGwcejpEqIIYnN3kekcISsOsk4d4TGYvKSFfCiQLOQx+LQzHGKHM+8efNy6O2Zx8jvmXFafECy0aXGuEZnZ2e1bHwUJVHMPT4m0lAY2lqjLIujxMGaS64VlMRcC1HMi1xcr+C2OeuYmHLMhrvSfJ1m4XFqIvK7YissUcwdt8fqMI8++qj51JZ56gseO3YMd955p2VdQTG27HANMzeCKLLspKFTSWJMEWxrOp9r1qzJUWqSslCG1A0vwUwUaZE1/i6u4fJ0V42ARkAjUGwRKFKimH2Vl5Tg9MTxozCsa2uEhl+ET42yYN1kEiYHcdlu3RMg+nCS2CHWNj7wH72/FdbuPIFdB4PQpXUdqYziocjektV7ERcUgxoenvBxcYWz7Msf8jixGJ64EIE0F4lV8/eThBNXnL0QLbGAqarEn4ujg8QClsCpc5GITU3BPR3qo1uHOpKpbIs4cUdzHLld0gZhJLGTkQrplBmSOAlrZNxkVgYtgzmJYqZck7OQ2VBxqY+f8icelYemk70NouPClTWReBiEkvM2NlJH2s4G287FYdqyVRI8T9dz8SCKHF+vXr1At7PRrAlOU2uPbmASKqNRfsSorWus47QoiSKt1dTu27lzpzoFxaBZYo8Z0OZmkCgSLI6LYslsBSUxVyOKZhdkXjI910sUeX/xuoyEFlq4mIlM0ms0EjTiYMi6sCqIUR2msESR5zDLEBFDEnQmX5gbq7FQdJtjYPLLW2+9pSyPBcXYfKyCzt8Iosi4RGppGtV8GD7Be95MFkkeqVlpCL2bdSuNsfM+NORy8pMVYlwkX2IYz2s+h3EcPdUIaAQ0AsURgSInioZVcfHCBXCJOYJG1SoiKVNqM5uunkkfTCY5HxWDj75bjkp+zqhT2R2/r96PGiIvc+hYuFgPM9C/dWNUtHNGanSKJLKI5qE8SEmsPMRqGBEZhNUBpyTj2QP2Nmm4t0MtlC3tLS5mG1We77wkpJwJjZIyW2FS2/kM/KqUxJDerdFBspqp28jYQ7q2SRBJGhWh4xg5UCGwhoaizCphb+oqkjSqyEaZ0k3O/dJSMjDqo4Wo5V8WnRvVlkSaOCGsUXI8kko5Fi2Sairz0t9JLJpbwxMwa+VfOeICZestb3zQU+PNeHByQLS0MPi+UqVKSiSYRMyofMLtfECSXFmINldebkVJFHnI3Ek3JDIs21dfqvpw7MwUNsu2sBb1c889p0ZTUBJzNaL4tUg7mcvQcZ5kg1nZJABs10sUuS+r0piznUkcScJZDi44OFjFxhn487thbJ2ReFQURJFJF7TEmu8BuvpbtmyplAQ4PpJTYwy0aFIonN9/QTHmdV5ruxFEkWMwWwO5zLALyiIRbwqOs6Sica2830j0cr+c5K5QxP0ZDsCSfYbEELOeGRPJY+VnveQYdNMIaAQ0AsUJgSInirw4JqbQzfrSs0/hwTsro3bV8tmVTmQbHygU0abO4ESpYnJX32fEYuKAOdMmooxPeZGeuQjbkBMYdPedst5WkkHSER0chfiIeDg5ixahkK61RwNxRKR0nhn3Dtq3zbYy7Vk1B91blBdLZbYETnbMoli1qFsYHotte4Kwff9JeHm7oK3UmG5ctyLKiLA2E1RSpPye0cjp/iG1MqekeyQ28bLbmf0uSawi9R3tpXLLzHk7RJ/xFJ68706kSGILW3JKnJQKjJfjlMiOT6QFk9ZJ6S8GR+yOzcBsIYrF0arAhz0tKKwhfLVGAsGyZ3ldR1ETRY6HYsdMZDEe3nmNMbdbuKAk5mpE0Xwc87nNAteFIYo8JmPgWHM4v0Yr38KFC3MInhcFUeQ5+d0PGDDAUiYwr3HwOkmkjO/fjA1JFS12RdVuFFHkiy2TVEaOHJnvUHk9q1atUkQyd0ceg7qeuf9mzGLfrI/NlwmjXS15xuinpxoBjYBG4FYjcEOIIt2EzACe9PUXsI05iQ6tG6pM4TTJJCZhIulyd3PBH2u2Ir1MY3koDhN9xEuY+uPPOL50Dp6+r6XI4GSo+D/GHjJ+Mf5kNC5ExuCPkydRp001NK1fFedtyqNpmy4izVEb6zfvxobfPsbDdzdBfJJoGZKYSaPVz04yjT3lfIcDQvHSB3Ngk2IP/wruqN/AF22b1UC1CmUtFkTupQyAtCDKvlxQCSmXiSLd5cL3YHepBHZuC8Fva7aj+x314eHorAgw+1MPMiH5gpoqi6KyRMrhbEWPUToE2Xliyv9+lwNL58vjVIMtJh8keKxUwWQKw8VpHhqtJLSkderUybz6ivlUCQUwrF3caFTwuKKjrGBNZloE2fhQNce+qZWmD8aI8cHOmD4zYaQGJK1xdI2zKou5hYWFKSsR1+WnFWl2IzI+j3F6uRstaoMHD85xbjNRNBM2ZoWzr9HMZCq/cdByRYxXr15t7KqmtFr27NkTY8aMyYEtN7744ouKuHM+v8xwc0USxhlyOXejm/S9995T129UcTH60O3MMdBaa/ydcVtBMTaOcy1Ts8v//fffV9ef1/4LFixA37591eaCZm9TC/LVV1+13IPmY/N7oDROfpJMJH69e/fO8fdiJooM2eB3Rxc2rZa8x4uD2L75OvW8RkAjoBGwhsANI4os6TVl8iTUc49DLalMkpiUYrHU8Q2cAtjUG5y1eCNqtLwXriJ98/N7YzFuQBekCBmjVZKkku5hN8l6PrrvJKZtO4VytctiSJfqKF+uLI6fDMFeiWF0KlVF8lzs4JlxFq0bVlZJJOoBdpn1kY/xnPaScbzzUDBWrhN3XZYDvFxd4OzigIZ1pMReVSGLdsyXEWFsIZb8J7upRrc04xGZzMJygGlJGdi47iSWbNuLnp0bwj3DBbEJyWq8jGekJTElPVEsi9FCBqnlKExRroWYMGs62rc6vvxxmhoTx2l+2Fr7km7lOiY4MCaNgsR0x9Htljtp5VaOj6SRNZF9fX2Ve/xmjYVkmvG1tJrRLU9sbkQ5Rt63JBckYXSxM8v5ZjfeA0FBQaruNGscGxbEmz2Om3E+vuQy25u1mVlthve7+WUnvzHwRYjhAXwZ4P1A17M5vpS/I7nro+d3PL1NI6AR0AgUBwRuCFHkw41vy6yzG7DhdzzRrysuivg0rYOKsEl8IuMUM4QQko6t3rIf309diQmPdpHqBa6iWcjasXTbZknyi71kLMfjA5GdGfvNd/Ar54tP3x6LjrUc0aRhDaRKPeWY2HhlffT2/j975x5dZXml8Sc5CbmckJCEEJAkhFsIEZBaLkIc0YKF6pIWRGurC0acGR1naq06alnTlnFaWGpdvYmX/iGu1q62itoKrQ0WcNCKXI3AjJEAARJIgFzJuSUnIX32fs93TMDVvwqJzP7knO9y3u/25J+fz3733tnxJBIJIDtOFNwTGJNkFNfKT8LRW3cdwIHqU6zJmIEjtY3snhJFSdFwzPzcGAwd7mfGtTyrOH76D+l8XgHX9ytrsO53lUgY1I07vjIDhbnZ2PHuUXUuZbjcRM/jdjDSzFqLEb2/WJPyLpJMkzilHN9/4nECpCTNuEXA2RyGmBi2MgVMAVPAFDAFTIEBocAFAUX3Zj10QRrw2LfuxqoHb6PjFtJQq2Q9n2pqwb6qozpPcdaVE/DymzvQwl7Lt82bwWzngNY81GuQopIY5/32ixVYseY5zL7q82hl1md7qBPfeeDfsOz60cjLzVEwE7CU/6MXd47MxUW/uHYoxsO6aBIKd6Q1n4x4uWInqg7XY/7Vk1CQn41shqgdWEIztGWuo7ihH1bVYgPrJB6rZY3Gqybgpusm67PJb8eqGRY/GaJj6eYkCuDK0kX4lBC0A0KWxqGDWt/SgTELl+Ab37yPcxojOH36dDyk5QG2nmxfpoApYAqYAqaAKWAK9LMCFwwUFY4IZN/ghPd7v3IFsrOYOEKQi3Z2YO36Sky99gaGcNvR2VqLrRsqcM+86QxtsSB3zGUToBvCfssvvbUTtZ0hzLlxMa6dvwgjLxvG3svJqHhrM7b86incfesctLSHNdtZtDw3jNsXGvuqva5iN0axxd6Cf5ikP0hSi8yHjLI2onR1Oc45kYdY4PtkYxtDSEnMzs7FjLJi+JlU08YakFEmwkhiixTiPn6klXMog/H7yzxFsHd0pDPAMHQ7YfYscvw52FlzEst+8N+YN28us4j34vF7l6Ns0mTM/upSzJ07V8eZs9j372R7poApYAqYAqaAKdA/ClwwUHTuWAJbVVVg1x9exH13LtKeys3NTfif6k7c9/AKfePX3ngTbz29Cv/B8HRze1DdRIFMKWFzmN1cXt21F6sfuRXbdn+E/cejyCosQ+nlV+BgTS2Obn8d/3xzOaGuQ0O/57uJMT/RsxNjGqfw2sfqm/DDFyq03Z+EiqOcO9jJotoBOoRBOpaSxyLzFEdfNhQlo/KRx6LdUgtSAFJAUrKvuzle5i6KWSm3aCIo1h1tix/TkjocF+7gsZ5uhrmHYuPBGvx8wxvIzx8mZ+E/l9+OObkpeK/6KEpvuRNfvf0O50Ce88yxR7eVKWAKmAKmgClgCpgCF02BCwaK+gYEPnEGv754IVb+01xkZQ9lx5Ue/GL9dlyz+F8wfdpUPP6D1fAf2oH5rJl4hn2dNSua4JadkYon1m1Be5ofi2cXYjrnIwZDYXZpOYYTjUFto1fOFn1+9nT2Qr29VdNIM2HLcxjdmkflH4+L0/i/1XUafh6Rxw4p3JJZjZIlncJws7iG0tdZYC8U6dAyOlJfURbXyo+QyN/kQpIVLZ9EtokJBTpxhKHoUJCwyexoyWMR8JXrynl7WL/xpfW/x2vsphFsa8WOHTuR31KL2eMKsXHvEVz/4Lcx9wvXqbNqzqLKbV+mgClgCpgCpoAp0E8KXFBQ9FzFv/zlPax75jE8evciRBNS0cJC27+o2Id/X/F9vPjsGpQEavC5svEIhTsoQ49mjwZZ+HfNO9X4rzXP460/rsfJ/Zuw6LpJ8GdkaMKIgFco3On6QzsqjEuoUCiQyP/cP6XD+L4bmIB09p6WJUpXUO4rizxzNx1Dme8oICgAqFTJtUCvZD6rkxiHRDnVJcro+/JWHSzCffhAE8JBFhqPPZuPXWEaWlqRw/ItDz76CJbecjMixw6hOHco2/2lcL4mi4V3ZmDLqZN4Yf06gqXrTa0PZV+mgClgCpgCpoApYAr0gwIXFBTlfTxYXPHwo5iRH2Km8jgkpWYyiaMRm3bX4O33q7F8ehEmjBqpxbEF7tJSB2H/gRp8nF6MR1Z+R8Ft89vvYvNvnsXX55dxjuIgQlu3hqkFCpXF5GayLWSmx2Jr2RdE1N90kMKjcKHMh4wd0bU4f1KWRx1CWoGyLXDIuDEB0TmIApECi3LYOYlqGbp9AUYJS/NeHeEoqquaNAzdTcjMZ+h6W81BzLvnfty8eBGfIVFLaWxkzbfGHZuQ6x+CQEsyKk/U4mcVrzH7W1xOW0wBU8AUMAVMAVPAFOg/BS44KMqrCXBFWHz5rq/divuXTEVmZgZSCEapiZ1YveZ1XFVUjCtLChjijZLfepDpT8Om7fuQOutG/ONdy1BfdwL5I/Lxp4qt2L3hOdz2pSsRpJvY23VzIMhYr0Iib6qAKKtPwNHbdnI7wBRUlCEKieogCgTGIFH3HRh2CSB6kMiTFCgJkOIm8p9Co/aEJhRKiNnHMHRzYwhHWChcltKJw/DCn95DTsnlWPWjH3GOYr4el6+lC29EsPYExg8pxoHmBnTk+bHqySdxBbs9yHPpc8dH24YpYAqYAqaAKWAKmAIXR4GLA4oKO2Ah20N47KF/xaNL57CsNUvUMIz8xy0foPtUGAtmTtQag/Lag/2p2LrnIzQWTcODDz8AHxNBwuGQFuVe9d0VmF0QVtCSDGUHUZ5jKOFauYJ+KQG63ZjTqM5ir99lk4uCIgHPOYkEPYKiuoa8/lmGoB0keqFoAcmY80hAlKQWt++OybY7n7DI8PgxZkP7GeJu7Q7j5Y3bMa1gONpZu3E4++n20FU809iI5NMBNLOgdX1rAIN8Z3EqGMAz69/A5MmTDRTdn8i+TQFTwBQwBUwBU6AfFLgooCjvpSFoEtmeDz7AU997ACvunId0JqJ8VFOPP2/8EHcvKEeASSPi86Ww3uCR+kasfXc3Zl5zNUqvvBajx41nskgy1q55AktmDEVW1hBXSoew1dcpdJhIftPlE5CUXQ8Y3W8yRu5HxJMHdK6gB4ExWJRODeoU0k2Mb8sYdRsFDgmG4ipyLYsLR3uwyNA1x2WkpuCXLPMTbWnDFaOKMXXKGHZuGMK5mkEc+vg0qmpP4e36E+w2MwJjJ5Tg5ruWa+9YcxNVUvsyBUwBU8AUMAVMgX5S4KKBoryfwiJdtu3bd+D5J1finkXTUcjahCt/8jssnFyKMZflse5gVDOEJVHl9T37cTvH/N+hBjSHoa35JhRkYcLYAmY9n6Vj5+NUPwFFB4sO/CQa7KDtU0O2znLkID4Q7UZxHBX2CIYkPucGKjS6ELSbj0iIVGAU8HOhaA1DCzDGPvJ+3JF/bu6jXsv9HmGm85O/34bhCZ0YnTsMOVnZ7OzXg0PHm9Dck4Cxs2fiISa49A5H6/XsyxQwBUwBU8AUMAVMgX5U4KKCorynB4s1NUfwvYfux103TEQXwW7D+j2494ZynAm7ntCZ7MO87p1KFJTl4/oZpWhljUVtAcjeyQqJbAMogOjmKbq5iZ6OLtwse7rlHeaa4EZA9I7qvMSYG/jJtpufKHMQXQjZhaF7mDzjJbIILPYQVPX3OCgKFPIOcj35SAIMf0tnzcYtlQdRvvx+DbVv2/oOklkwPDcvDyNHFaKsrAw5OTlyoj6nnsstK43T689mm6aAKWAKmAKmgCnQLwpcdFCUt1RYpLMnCS5PrV6NrPBhtrqLIKPLh5tmTMbp1nYk+boRam/Cb7dV4Y6lC5CZMghhdkKRlnqJPp9mPoubmEhYlAxi5x462DpXSYEvtzhEVFNRgc6BnRCezjOUYzE3sQ8oCjR6jqImtMjcRQeKAoQ9sfPFpdTzYmtOxCRQduMnFR8iY3AmFn7tNty+bNm5j6cuZe/EnPMG2AFTwBQwBUwBU8AUMAX6QYF+AUV5T4E3LzS8efNmvLr2Gex7/2Pces1oLJhWiMa2NgQaAjjOrOFd7Jm88JY5KCkchvZAByExie5iEoGRH4afBQNlrmHfxR0lxsnN+v7EPf1Vf3K/q5On4eJzHcVYqJmOotZQFGAkJMocRVdnMQaM6izyuFyOv3USatOTk/HSn3fiRF0AN02diN2dnXjulXXxZ5H39z7xg7ZhCpgCpoApYAqYAqbAAFGg30DRe39x6hJ9iQgEgnj26efw0gtrMXN4AhYUFyCtKxGpzBhuC4TwLvstz5g/HeXTJiBKpy7c0UVYTFZgjM9RFEjTC0uXFW9bNsT1E2R0x2WQjosBpDqOcozOoM455HFxPdUdJPRJ32ZxBgUMnbP4iaMYn8Oo43kex0Q7pcVfD1rPhLBx+8dYMKUM8HVhV7cfq3/6tD6hB8m6Y1+mgClgCpgCpoApYAoMQAX6HRRFEw1FS787LgF2ZNmwYQPefOVlJNQdREFKEkaw7uLpMwF8lJqL8aXD8eVZJSgaOQwREqP0ZxZX0cdwtHRr6aFLJ4B33qKgyKMCh7Lde1/JkcfEUZTjMXfQwaLsO1hUKFRYFEexNzjKGDeHMcquLFpOh+O66DymM2R+iD2raxIzsfKpnyItLa3P+573nHbAFDAFTAFTwBQwBUyBAaLAgABFTwtJEhHgI3XpvMO6ujrs3buXLl0Pipj4MWXKFDQ0NOD5n/0Y/s4GzC+fhBHDctB1VuY7RhXyZK6f9IuOR6LVPVT/kNeVf25bYFCBUY6IGxiDR8l8dtvOXRRYFECMu4t8RjnPg8Zu1lmMElYFHLsYbpawtNRWZEsXJHHu5LFTnGe56UPM/tINmFY+G5d/fhpGFhV4r2xrU8AUMAVMAVPAFDAFBqwCAwoUPZUUGGMOox4T8COcuW35TsC+ffvw6q9/ifSuRlw9dRzGFV+mYegoAS1KYIvGgM5Bo8wF5GlyCVnLwm1t4RcDxDgsqnso4OiAT0FRQJLXlbCzhJ8l+1nGy7V9/CRwO8oakIEzEUgpnNMtZ1B9vBEh+NDNdoWpGdlITkkBERNNze34wo1fxJJbluhjWAhaZbAvU8AUMAVMAVPAFBiACgxIUPR0EmdPQE0WASpxC+WYQGMCw8xCfeI6vrbuFTQeq0Jeeg+mTx6HUazHmJaWoudJNrNAYzRKt4/bGk6WU8U5lBHel67l0s5h1HFyb+9+HCq3lAC5lOjujkYRDEZQV9+E/YfrcLK1A2d9mRgxejSKJ07EqLHjUFpa+qk9m8UVlZqJBonyB7DFFDAFTAFTwBQwBQaqAgMaFP+WaAqMBDYHW84mrKysxDtb38bJo9VIOhtCrn8Qxhblo3BEHrIz/UhJYfILE2figCYQSADVhZu9k1kUGPm7FNbu6IignXMkm+kUnjjVgqojDQh0JWBQVj6Kxl+O6bNmYcyYMedAoVwwdmm5jtyLi4bW3WH7NgVMAVPAFDAFTAFTYEAr8JkFRU9VATpx/3wEQLc48GtubkZVVRU+YMvAQGszazK2oCPUjrQkcO4gs5bpCKYRHKUfs4Cj1GeUMyWsLMW9BexCkSiTY1h+xzeIbmEqMnOGoWD0WIwvGa/zJYcMGeI9BtcODM9K5jQ35Zrep9cg2zQFTAFTwBQwBUwBU+Azo8BnHhR7K63hYlKaz5vfqMwYcwxjAyORCNpYo1E+sh0Oh+kYdmjIWdw++Uhmcnp6OgYPHozMzEz4/f7et+G2ZxVKzgrnMhoUnqOP7ZoCpoApYAqYAqbApaDAJQWKvf8gXuhY1oKK2hJPNmKMp2P7MmTv0922jI2NEZdQE17kkIHh+VrZEVPAFDAFTAFTwBS45BS4ZEHxb/2lBB5l8dafNlZgUBZv/Wlj7JgpYAqYAqaAKWAKmAKXsgL/L0HxUv6D2ruZAqaAKWAKmAKmgCnw91LAQPHvpaRdxxQwBUwBU8AUMAVMgUtMgb8CAAD//xm5jSQAACjCSURBVO2dB5gUxdaGDzkjWVxAogRJkiUHARUVE5hQTOAVEK6gIkpQEUn+EhTEzFUxYM4RQZJIzhkElJxzFP3r691qanq7Z2d3eoeZ2e88D9upurr6reGZb07VOZXpX2VCIwESIAESIAESIAESIAEHgUwUig4iPCQBEiABEiABEiABErAIUCjyg0ACJEACJEACJEACJOBKgELRFQtPkgAJkAAJkAAJkAAJUCjyM0ACJEACJEACJEACJOBKgELRFQtPkgAJkAAJkAAJkAAJUCjyM0ACJEACJEACJEACJOBKgELRFUvGOvnge0tl5fbDaXrpW+uWkIdalkvTvc6b5vyxX/4zaamcOHNW7mxQUp66trKzSFQfP/TBMlm69ZDVxrsuLyUPNC0TtL0PTFoiq3ccscuM6lhN6pUpaB9zJz4I3PO/RTJrw34pnDebfNmtgRS/IGd8vBjfggRIIEMQoFDMEN0c/CXrD5sue4+eDl7I42rLSkXkzc61PK6m7nTnifhC3WfdlDVLJlk3uHXqKjjPpRuNmCE7D5+yWnF1tQtl/O01PFvU/f2l8sPK3fb1Sy/KJ988dLl9zJ3YIIAfNX+fTUxFmy9n1mSNPnrqb6kxeJp9/u6GpWLuB5DdeO6QAAlkSAIUihmy2wNf2hQ4gVdSPrry0mIyoVPNlAuGUKL/F6vlg/lbrZIFc2eThf1bhHBX9BQxOQYTikO+Wydvzd5iN7x4/hwy49GmAnFMiy0ClwycImf/SRSKHz9QT+qULhDwArhW+alf7DIjb64qHWonBJThAQmQAAlEMwEKxWjunShr26m//5E6z/0qx0+ftVqWJXMmmfloE9+G0k6r+t+a/af8deCEdGteRkoWzBVlBII3JxSh+NZvf8qQb9faFeXNkVVm920qbt4ouxB3opZAhQFT5J+kxa0md63rOnVgxbbDgn5vVL4QRWLU9iQbRgIk4EWAQtGLDM8nI2AODePioGsryT0NL05WLqOeSEkofrdil2Aeo7bsWTPLlIcbxZwg1u3nViQUoUhOJEACJBDLBCgUY7n3Itj2r5ftlP9OXm4/sUbJ/PKFmpgfzA4cPyOfLNwuq3cmBmzUV4EaLSoW9vRA7j5ySpb8lRgMUqJALqmakM+z+pXbj8hPq3bL+t1HpVpCfmlVuahULp5X4PWcvm6vdd9FKmigeon8nnWktn2eFSVdCCYUF2w5KLe9vsD2PmXOlEk+fbCe1Cx5QUrVysY9x+R7JTI3qG22LJmlfpkC0rJSUSmSN7vnvet2HZXN+45b12tfXMAqC0/w1LV7ZMa6fYLB0hqKTZsqRZP1x5qdR+XP/Yn3XlIsr5QtktvzOegDba1VXXgvp6EtaP+63cekUJ5s0rh8YWlSoZDAm+pmCGo6cvJv61LzikWs7Y9qPucva/ZYw/ODrqkkF+TKFnArPju4js/FPjXftlzRPNb7oU3wfKdkmGc4e+N++XXdHtl95LRUwP3qM36F+lw5baHqy33HEuf0dlNzTZMcitJTBXXpzyzu088136eFeh/8QPAytGH2xn2yee9xKZYvhzSukMgqV7YsXrdIOH3tWSkvkAAJkEASAQpFfhRSJHDoxBmpP2yGnDn7j1UWX3Rz+zVL9mWtK8K8LHyB4otbf4nqa9hWUwLlwy51JXf2wC+/QV+tkUlz/7KKllLDztPVsLbT/tx/Qm54ea4cVG1y2oVqrt+TV1e0BW3RfNlVO5s7i1nzxdLSvmQVOU54CcVN6kv/qhfn2PygpSbcUVPaqvmdwQzvet/bi+WPvcdci5UunFsw3AlB4bQrx/6mRHTifX1al5dtB0/K5AXbnMUEbenevKw80qaCfa3ja/MFYgiGZ0zr09i+Zu78vHqPilJfYp/CnFLMLdW2XT3z3rcX2e3Q5/W2U/2S8uz1VfShva04aIodIDJQicKh36+z5/ih0GcP1pfLSiUKbASTPPrJShUYtMv1s4bPGN7t3kbunm/8sOj05kJZ9Gfi+9qNSNrJrwJUhtxQRa6tXty+VF0FpxxTQSrB7LueDa0fLihjzmN8+57a0vSSwsluhRB+8otVgh8vbgZB/7L6zGjxaZYJp6/NerhPAiRAAm4EKBTdqPBcAIH24+fKCiN9zou3VQ/44jQLw2vVZsxvsuPQSfN0sn18gU/p3VgQyKEtJaE4d9MBuWviQltE6Pu8tm5CMZz2eT1Hn3cTivuV56nZ/82y53WibChD9qG+KwJgxt1WI5noNMUDyujIXN1W59bsU4gWCGkYhOSSAS1d51De9dZCywuHchcXyiW/PnJO2GNeXgclODHvNJhdUiyP/PjfRgFFTKEYcCHpQAtFzA28YvRvsiXJc+pWVp+DWHamcYIn7hbVxsNJ3ktd1m1rCjy/heL4XzfJCz9vcHtswDmI8C+7N0g2VSGcvg54AA9IgARIwIUAhaILFJ46R8AZfNFMeUP+p7wiXgbvDIbatCEK9DaVaxFeyC+X7pSpysuorYkaVnvn3nN1pSQUG6r0M7uS0s+gDoiMdsrTg2DhqWv3WjkMTQ+mm1AMp3263V5bp1D8vw5Vpdnzs+xhStzXpUlpy+vpVQfOO4OGcA7cr62Bd80kP6rhXnPIF2yXDmwpOYwhTVM84H4YPK4YEsVQ/TQ1BA2PoLbCebLL/CfPeV+rqEhdtAPmJrJw3izTt+0l8mDzMjhtef8Q9KQFGMTmTbUSpLmadnD81Fl5fdYWazjdKqz+PNu+inRSeTO1uQlF/LCoeGFea+j9JfVDBV7UsVP/kLG/bNS3WUPkiMK/vFwha/h2ogog0QIZbZjWp4klaPUNaKP24OF6LeWlvPGyBKmiUhV9u3ynvD3nL3uqQB41TL58UEvr1ulq6H73kcQfQv0+X2V7MuG1xPQHGOrRUezBPIrIu3njhHnWPfiDofuOdRLUFI0isl392Pps8XZrOF0XqKQYfN+roT60tuH2dUBlPCABEiABBwEKRQcQHp4jgKHD5i/Msof98GW5UIkJrzlWEIgQYtogHCAgTHtt5mYZ/sN665TzyzuYUHQGgtysUow8r1KNmPbpou3y2Kcr7VNOoRhu++yKPXZMoXhV1WKyVnmsMOysDfPlXrvzMn3oue390QolqnfY14fecKncVq+EfYwd5GDs8cG5+XHX17xIRt9SzS7jFA/XKZE59tbq9nXsDPthnbw+c4t97o/n2tj7SMKuxWgZNfw81TH8bLJEP656+gpbqA78arW8NzcxzREq/EiljanrSBsDTx7mbcIwV3FZkgjDsVMoIhH5DZddhEsB1nLUbNubCPH7VY/AObPwGLZ76Xdb7GEIukeLslYdToH2ikrx5JwK8JX6YfPwR+fm5f6motOdybJDCWYJJhQbj5xpe9/x/wreUuTUNO2Zb9ZYolWfc7Y13L7W9XJLAiRAAm4EKBTdqPCcRaCFEomYJ6ftvfvrSEPlrfEycygSHp/f1TxGNzM9OaaHLZhQbPfSHEGQBQzepRVPtXKrWkyR5RSK4bbP9YHGSVMoGqftXaRHmXRfHfvYa6faM1PtoWrMxYN4cLMeKoIaQSIwiLWNQ84JPVM8IBjlFzXM7zR4DOEV1IYhYHhpYRg6bq/mgsJQNzyWZvAJVpWZkuSRdIq0WkN+FcxrhbVTicfHuSQex5B8vWHTbW8cko1rgWQKxVuUN3r4jZdadTn/mB5meAM/deGEHy56tZw71JxIzGGFQUQOVHNiYRfkyuop4M22uAn2cIQi0kA1V9MStD18RXnp1cp9laPLh89QXsxTVtESBXLKzMea6tsk3L62K+IOCZAACbgQoFB0gcJTIiN/XC+vzNhso7ix1kXyQodzHiv7grFT9emp1vJ7OGUKQKOItXv/O4vV0GdiZLK5skswoWiKy9vrlZTnVICBm5ntdgrFcNvn9jzzXEpCEWUHtKso9zUubd4WsA8xDFGs7Ss1Jw3BP26GYVNw0faDGpLE8CzMFA/wxsEr52amt+v1uy4LiPI1mT+qvHHdk7xxqMcUs6bHb6sSP5iTqc0UgPqc3pr1j7jpUjXkmug1NcUZVv3BZ8TNen64TA0RJwplXEfgi1fQitv9oZwzRe8TV1WUrk0D+y4coWh6dBHNvvqZVq5R42jnh/O3WcEu2EfZtYOvwK5lfvS1rotbEiABEnASoFB0EuGx5bm7Ztwc29uD+Wtzn2jm+SWmkZUf8LN9D9J55MmRRV8K2GLumg5yMIMZgglFUzwEW90imFAMt30BL+Fy4CYU4VlFKhW9ege8c1/3OOc9c1bzxZId0ufjFdZplDW9hM6yODYFG8QzRDQsVPFgcnUKRbM/TK+kOWzrFC3OSOhgKXz2HztjDwtD4EHowcw2BROKSKV086vz7M8c7kVUMFLbtKxcRLooQV5IfXZTskV/HrKG4ZES6PAJ9dlU0f3mXFd9v99CERHjep5ogvISzjK8hPqZegtvIryK2lY/c26o34++1vVySwIkQAJOAhSKTiIZ/BiRpA1UKhydJw5i5duHzqX68MKDoUZ4X1JrEBLznkgMojCFiTM9Trn+P9tVf/Kf+lL7Yvf8g15C0Y/22Q3w2HEKReRxRGoZBJ+YOSgxhIvAETP4RFf5ogrQGJMUoAGxvfLpVvqS69ac42amm/FDPJjiBJ+D5YNaWcP+vT5cLt+oYA+YMyDpDRWognQ2qTXMD8TcO1ioQhFlIfI6vbnADrzBOdMQjd2/XSUrX6R5HvtIrXPtuN8D5pE6y5jHfgvFm16ZZ+cNRT7Nz7u5TzHQbTB/6JjzPv3oa/0MbkmABEjASYBC0Ukkgx8jGARBIdoeaFpG+l0VGJCir5lb5zAoIj7dki+b92C/rAqU0FGcwYSi+SWZFqHoR/ucbXcem0IRqUxmqeAHnSgZXkJ4C7VB6OI9nGZGmUNIwnMUzOoPmy57VYJp2K1qPt+wpPl8fokHzKHDXDpY3ytVZHOzMnLZs9PsiOYPVD7MBmULWtfxB8ExGFLV5hX4pK/rbUcVnKRzKqZGKOJ+zLWcqJZ+xDrhWw+ecPUGun2O26o0Tkhirg1JvBF0A4FfTOXgxOcXkdU6f6jfQtGMwHfO89Rt0lv8gMMwtzZzvrBffa3r5pYESIAETAIUiiaNDL5vRrIChdOrlxIec76WmXcupfv09WBC0ZxfiGhnRD27mZdHEWXDbZ/b88xzplC8WgVxjHcEcWDuHubwaXMLXsBwKjxNMHjxUhp6rqyCUfQwvjmP0C/xgHmqYAorr4Z0kfQZdcPMlDHWCfUH+R9vf2OBdQihtWFIa30p5G1qhaJZMYb44cHFikAz1u+zh7ZR5l0VSNRYBRTBzFyROPaaO5qecxSf/nqNvPP7X3i8pDT0jOTpmjvKI1BMJ1r3q69RL40ESIAEnAQoFJ1EMugxxEadodPtFSfwJT9DrYyCL7BQzQxOwBrQSCydGgsmFE0RFiw4I5hQDLd9Kb2L2UY3oQjPH4aKtYcKQvDjBwKH0ZH3D0JJm+k50uf0FpG7WPFFG/JbIt8izC/xAG8dRDo8Wmgv0uwgbQzMmZIH5/A5gnjVhgTRwZZR1OXMbShCEUv86YAorJ7SwiXgBbybPj/THpbG6ipILA57/LNV8vHCbdZ+sNVn0lMofr54hzzySeJ8VMytRCS/23QENHL0lI3y0rQ/rPaiH8wfEH71tVU5/5AACZCAgwCFogNIRj3EUmtIJKxtgAosuM9j2TNdxrk151whyGHxgBbJlunT9yAZ8jXVL7S9IjgfTCje/b9FMlN5iGCoe5Wau+e2nFkHFdyAeWswZ9RzuO2zKg3yJyWhiFshbhD1rQ2pfuAdMlPPmOKkXJE8agWbRrp4wNbMRegMKvFTPNwwYa4s23o44Nk4QModt3WgTe+vGQTjrACi+JUZm6SbWkLQ7MtQhKK59jiE09pnWtsJrs3nmMO7Zls6vDrfXrbPSrCt0vM4DcsY3mqsz53S0LOXqDcjy01P+06VPB6fGW13Niglg9tX1ocBWzNoCUm9sUSgNj/7WtfJLQmQAAloAhSKmkQG3jqTWac0X8oL1aodR6zgAH0dX8zIAYi5X6bp9DgQN2+olCx67dtgQhGJq68YPduuBm1E3Xr1C1wY8OVqeX/euUTPTqEYbvvsh3vshCIUcav5njhG/kCkkdHmTBxuzj3UZbAiCebPaXPmK/RTPCBwBQEspjnZmtfGKc/XKOUB0+bmAUZw0dXKGwqxhLq+7H65vZxjKELRDLTBc/AZgggzDcEqjUbMtHM61itT0FobG2UGqs/Ke0mfFQjNj7rWE6wipA2R3VjzWq/sgvM9W5aT3mopQNPMoX+vlFBeQhH1dH13ibUmOvbhxcdqPmZycXhyIXYxpK/NXG4R5/zsa/0MbkmABEhAE6BQ1CQy8Nb0VgADJvPnzJY5JCIYKjO9G87cdghmaFiuoErknFclPj6sliM7bCeTxgPMJMamgHKbH3mzmru3WM3h04Y5cpeVzC//qhPweB099be+ZG3dxEw47Quo3OUgVKGIW52BFMjPB4+VNnPVEZzDFAAkO8+qhijnbT4QEKkLr+Si/i0CVszxWzxUGvSLPWSO9jjbi3OmmcmwcR7BPY3LF1bparLJfOWpW7/7qC3C8IMBQlkn+w5FKKJO06OKY/xogOjGUDfmeq7bdSygzW+pnIx6iBreQghB09DGEgVzyWb1o8T5WUI5N8HeYPh02XMkMZgIXtHLVWAPPpeY81hS1QULJhTxnNrP/WqzQPmqCfmkzsUFrMwDv23cby8ziGtu0dF+9zWeQyMBEiABTYBCUZPIwFszyCMtGMyl3zBH7a6Ji2S+EjPBDF6c0R2rS/uaxe1iKQlFrOaBJdn0ChX2jR47bkIxnPZ5PMY+nRqhCI8avF3wemkzgy3wjh3V8KiOONZlnFuIRKRK0aua6Ot+iwftBdb1L1TCFMLKy+ABRlBLSn2F9iOvpDmEHapQhLets/qsQUylZJjm8NJtNQKKOSP8Ay4mHcDLh+fAnJ5fnHv+pw0yYfom7AaYmf8xmFDETQgi6/LOkoDPQkBlSQdgBFZgZprffW3WzX0SIAESoFDkZyAgGji1OCD4zIn1+v5PVIqdwd+sTeaZgfeoZMGc8tS1le3AC33Ps9+uFcxdhHkFGGAo8K6JC5UQPWh/gaM82oGcfsibp9cZDraMYFrah+cEMwRObFPrY8Pc1lZ23ovhxDtUDsAkHeK6NCHWTUYEL4JKTIOAgXcMEeBugs1c8rBDnQQZeVPguti6LtNTaAbD6Ot6a0Zjm3P99HWvLaYDgDUEumkQO/Ayv3pnzYB5qihjtsmc02feb+5jmPu9uX/JQSW+NUt9HcniH1fpnTp4RMkjqhuBIjrASN+H6RJYenCyWhFF54xEm51LR7oNDaMOUyiawteZTkg/7/jps5boxZC3Ts6ur+G58GbqhOT6vN763de6Xm5JgARIAAQoFPk5SFcCEAgYatx56KSVow4C0C+DeFmm1iTGMB2G62Dmes7B1knWbUjP9uln+LGFB3Lmhn2CaF94tqpelD9gfqYfz0jPOtD+2UmePwyhu4nbcJ8P0YYh5ZVqrmx5FQRUQ01LcM6P9XrGRpVPEffmVqsJtahYJCC4yOse8zzSHsEzCAGPzx1SCaXVUBf6Gjk4q6q5uHpIPq318T4SIAESCIcAhWI49HhvRAlgmBbeHyQAxxey0+CJqamSQcM7A3ObU+a8h8ckQAIkQAIkQALeBCgUvdnwShQRgLeojVpJA3PfEOjyVY8GAd4iXMc8OjPFj1e6kih6LTaFBEiABEiABKKaAIViVHcPG6cJILXNdeN/t+egIcK0nJrcX1MN8x04dsZKH2JGqmJ4E0KRRgIkQAIkQAIkkHYCFIppZ8c7I0wAibQxB9GMFHZrAoJYpvZpnCw61K0sz5EACZAACZAACXgToFD0ZsMrUUjgwPEz8tAHy6x8jIdVYIdpmPyPpMfOpMhmGe6TAAmQAAmQAAmEToBCMXRWLBllBJAyZoZa1i+vilStrSKfvdbJjbJmszkkQAIkQAIkEDMEKBRjpqvYUBIgARIgARIgARKILAEKxcjy5tNIgARIgARIgARIIGYIUCjGTFexoSRAAiRAAiRAAiQQWQIUipHlzaeRAAmQAAmQAAmQQMwQoFCMma5iQ0mABEiABEiABEggsgQoFCPLm08jARIgARIgARIggZghQKEYM13FhpIACZAACZAACZBAZAlQKEaWN59GAiRAAiRAAiRAAjFDgEIxZrqKDSUBEiABEiABEiCByBKgUIwsbz6NBEiABEiABEiABGKGAIVizHQVG0oCJEACJEACJEACkSVAoRhZ3nwaCZAACZAACZAACcQMAQrFmOkqNpQESIAESIAESIAEIkuAQjGyvPk0EiABEiABEiABEogZAhSKMdNVbCgJkAAJkAAJkAAJRJYAhWJkefNpJEACJEACJEACJBAzBCgUY6ar2FASIAESIAESIAESiCwBCsXI8ubTSIAESIAESIAESCBmCFAoxkxXsaEkQAIkQAIkQAIkEFkCFIqR5c2nkQAJkAAJkAAJkEDMEKBQjJmuYkNJgARIgARIgARIILIEKBQjy5tPIwESIAESIAESIIGYIUChGDNdxYaSAAmQAAmQAAmQQGQJUChGljefRgIkQAIkQAIkQAIxQ4BCMWa6ig0lARKIJQIHDh6RC/LnlcyZM8VSs9lWEiABEgggQKEYgIMHqSFw5szfMmP2EklIKCpVKpZOza0sSwJxTWDLXztl8IiJ0rRhTbmnU7u4fle+HAmQQHwToFCM7/5Nt7c7rUTi2Jcny6q1myVH9mwydmRva5tuD2TFJBBDBEaP/1CWrdxoeROfG/SgFC9WKIZaz6aSAAmQwDkCFIrnWHAvRAKmSNS3jBraSwoWyKcPuSWBDEtg05btljdRA2jUoLp0vbu9PuSWBEiABGKKAIViTHXX+W+sm0hEqygUz3/fsAXRQWDMhI9k6fL1dmMwR3HYU92kWNGC9jnukAAJkECsEKBQjJWeioJ2eolENI1CMQo6iE047wQwN/HpYW8ma0eTy2vI/Z2vS3aeJ0iABEgg2glQKEZ7D0VJ+4KJRDSRQjFKOsrRjFlzlsna9Vvk9g5tJHfunI6rPPSbwIuvfCyLl61LVm3mzJll+NPdpGiRAsmu8QQJkAAJRDMBCsVo7p0oaVtKIhHNfPKRzlYqELPJeZQwgTjJlInpQUwukdr/c+suGTH6XTl+4pSYHi2Ix9m/L/O1Gblz55Drr2kmF5e80Nd6Y6ky8H562Bvy77/urW7W6DK5985r3C/yLAmQAAlEKQEKxSjtmGhpVigiMVhbMT8rT+5cki9vbsmbN3FbQqXTqVntEilbOkGJyGB381paCRw/flKeGvqG7N1/yK4CXsW2repbx8OVgFy7/k/7mh87lS65WPr1vsuPqmKyjnGvfSoLl6zxbHuWLPAqdpcihS/wLMMLJEACJBBtBCgUo61Hoqg94YrElF4lf/48SjBWsERjjarlJVu2rCndki7XV6/bIstXbpDNW3ZIrlw55ZLypaRurcox/YUOkQgPl9Mef/hOqaxyXkJIDlJl9hlC0lk2tcelShSTwf27pva2uCi/dftuGfTc657eRP2SLZrUkrvvYF5FzYNbEiCB6CdAoRj9fXReWpjeItH5Usgz10WlEClftoTzUrod//33WRk5dpKs37g12TPg6by9Q1tp07JesmvRfuLNd76WWR5Dy7lz5ZBnnuxqiWAIyeGj3pUTJ0/58koZ0aP4zz//yJ69B+WDT6cERDp7Ac2aNYv0eeh2KV3qQsmtfpTQSIAESCDaCVAoRnsPnYf2RVok6lfEMHW7to3k+nZNBV+o6W0Dh7wu8AQFM8wpw9yyWDHMP3zz3a+DNhfzCOFZxPzRRUvXykuvfhK0fKgX41Uo/qsmHe7bf1h27t4nu3bvV/8OyK492O63RCLEYlosr5qOgR9IF+p/RbFf0DqXI0f2tFTJe0iABEjAdwIUir4jjf0KP/58qnz385zz9iKlSxWXJ/rcJen5Zblt+x4ZMOQ1+x2rX1reigzes/eATHjrczl58rR1DWv1jhn+X7tcNO/AQ4gh51DMDG754psZ8uV3M0O5LWiZeBOK3/wwW+bMWyG71WcC3udIWoEL8kqZiy+SO2+9UgoX4pzGSLLns0iABAIJUCgG8uCRInC+hSI64Yrmda0vyfTqkFHjPpTlqzZa1efPl0fGjnjYfpQzF17/R++RCuUiNyRuNyQVO5hz+NjAcVaEc6i3wXN7w7XNQi1ul3tDDW27RU3Hm1BEPkR8Fs6nxcJnLzV8Vq7eJB+qYXrTk4+sCJijfPcdV6vVnfJb1R04eFjefv97axlEeHS1lUwoJrfd3FqqVimrT8n7H/8kM+cstX/c4QKC565qc7m0a9PQLscdEiCBtBGgUEwbt7i+63wNPZtQMUewX+/OUrFCKfO0b/t9B46XPfsOWvU1a6zSlnQKTFvSrc/z9hfPrTe1lqtaN/Dt2elRkVfwSkrP6vmfDlK7ZqWUigVcX6OCf0aMmRRwDgfxJhThdR459j05fORYsneNxIkbVLqh669pGolHRewZwaZ7QNR1vLGV1ZZgP1YhFp8dkBg05fVZRCUQoM8/+5DyyCaKz4i9JB9EAnFGgEIxzjrUr9eJBrGIuVuIos2eDtHQPR55QXnfTlq43ITgowPG2RHBbkLSL85+1BMseCWl+hHc8rhKaZOa/IdeX87xJhTBbvvOvfK8EosHDx1NCaWv1ztc31KuubKRr3VGQ2X3dn/OsxnwKvbucZt1ffT4Dy1volfhiS/3ty5N+XW+vPfRT17FrPpQL40ESCDtBCgU084u7u+MBrHYo+tNKlVNFd9Zd+k5TM6eTQxC6Hb/jVK/zqUBz0DqmL+S0stcWrmsPNbrjoDr0XLgRzAKROIzT3YJ+ZUyklAEFAStjBjznmA4NBLm9sMlEs+NxDMoFCNBmc8gAX8JUCj6yzPuajvfYrFF09py9+1X+871vh5DVc67xLlPPbrebOVNNB9izk9D3kFECUej+SEUESzxf0MeCvn1MppQBBhMUxgxepLtZQ4ZVioLdrqlrbRuEXspmUJ9TQrFUEmxHAlEDwEKxejpi6htSShi0bmEH0QYIkVPnzkjZ86claPHjsvuPQesfwgQ2LRle4rJiQGkWNGCMuKZ7r6ziReh6AXGa+UVPWTndV8o5zOiUAQXpMhB3k18jv02zMntfNvVgh9G8Wzm/zvneyL5/sPdb7VOj3l5sixdscFZxDrG3MO3xj9p7f8yfYFMmvyjazmcfKTn7VKtSjnP67xAAiSQMgEKxZQZsYQikJJYHDW0l4pYzBcyqwMHj8iiJWvl25/mpDik9/qL/XzPq2h+YcWyR9ELOIWiF5nwzh88dMQaht65a194FRl3Q/ggmKppo5rG2fjcDSYAkQoI2Q5gwQSgKSgh2vs9/bLrj85cOXPI6GG90jXNVnz2Et+KBAIJUCgG8uBREALBxGJqhaJ+DFYFmfzpLzJ99mJ9KtkWeQyRz9BP69pruJ0bzy2pNnIsIuoVhjmSmCsZS+aXUHxMBfWY60WnhQFWt7mjY9u03BqV9xw+fMyKht62I/HzEU4jkWS+S+f20rB+tXCqiZl7Mc9zyrQFydLjVFcBJ0hsr5fxPHPmb5nx2xK1tOZGe4oIXhIRz61b1rXT6ODcMuV5nD13mZ2lAOeQHqdlszoRXekJz6WRQDwSoFCMx15Nx3fyEotpFYq6qZM/+0V+mPK7PgzYPjfwP5JwUZGAc+Ee/PfxMXbaE6QgQSoS03o/MdaOdL1a5WO75cYrzMtRv++XUPSqJzUA0pqvMTXPiHTZVWs3W9HQ4T63Vo2K0uvBjuFWw/tJgARIIN0IUCimG9r4rdhNLIYrFP/551954aX3BV/ATkuPpMNmPrcqKlilrxGsgvmVXXoOF7002z2d2knzxrWczYrqYy+Bl9o5ikjkjQjwffsPpel941UITZu5SN754Ps0MTFvwg8g/BCikQAJkEC0EqBQjNaeifJ2mWIxR/ZsMnZkb8E2HPNagm7U0J4BQ03hPEPfO/mzKcqDOdc6zJw5sxX1q+dYfv/z7/LR579Y1xBk8OKI3oJ1eWPJvIQiEhAXKZy6JeHQL8NHvSuYJpAaK1WimEqafpe1pnRq7ouFsgigwDy6cA2fvVfH9PV9Dm647eL9JEACJKAJUChqEtymmoA1j2j2EklIKCrwyvlhTw5+RXbsPBcokDNndpkw6jE/qg6oA23H6is6lyJEbu3LKsmRo8dlxao/7LJYGeaJPp3t41jZ8RKKWOP5ejXMnlqxOGvOMnnz3a9Dfn0EEvRT63WnJpF3yJVHQUEvvmlpGlYZwdw7GgmQAAlEIwEKxWjslQzcpi+/nSlffDvDJlCuTIIM7HuvfeznzpffqWd9c+5ZzrqzZs0izzzRxff5kc7npMexX0IGwvL+ztdZTcSauj9Pmx9Sc9OyNGBIFUdJoZ6PjVIpn0740poH77tBGtSt6ktdrIQESIAE/CZAoeg3UdYXFoEFi1fL+Nc/s+vA3EDMEUwvW7B4jbzxztdy6tRp+xEYbi5WtJA8qTyJ+fPnsc/H0o5fQhHvfHuHNtK2VX3r9UOpNx6DV8y+P3T4qDzcb6x5Kqz9a69qLDe3bxFWHbyZBEiABNKLAIViepFlvWkisH7jVhn6wtv2vVg6D0vopbdBKK5et0Xy58stZUsnCHLbxbKFIuhS835YmQYr1KQU3BKvwSsmq1VrNsnzL75vnnLdTyheRHbvPWCnYXItpE5mBGZe787zJEAC0U+AQjH6+yhDtXDP3oPSd9B4650LFcxvBZnEumg7Hx3ot1DMnSuHWg+6qzW30Su4JZ6DV8w+/GnqPPngk5/NUwH7EIg3tW8utWtWlv0HDlnTG36bt1xF0ScuGRlQWB0ULVJARg7u4TzNYxIgARKICgIUilHRDWyEJnD8xEnp8cgL1iGH5DSV1G9ffOVjWbxsXepvDHIHAlPgWcydO6c4g1sQvDK4f6KQDFJFXFyaOOlbKxm082UQIIR8nA3rVxck0jZt+8698vnX0wVTHZwG5/WE0X3DzhrgrJfHJEACJOAHAQpFPyiyDt8ImPO/hj3dTYoXK+Rb3Rmpor37lCdLBQXt3XfQ19euXbOSPV/RDG7RQ9O+PixKK3t25P/kj83b7NZhHut1ap5hiya1U0xzs3nLDvn0q19lxepzkfWoaNDj91pTHuxKuUMCJEACUUKAQjFKOoLNSCSgh54rlCsp/R+9m1iinACixi8udaEaZq0U5S31r3l6VZ/cuXIKVu1powJ9UptDdI2aD/vpV9Nkwx+JghNLRGKpSBoJkAAJRBsBCsVo65EM3p5NW7bL4BETpdv9N0r9OpdmcBp8/WgkgETbJ0+elhZNa0seNQwfji1V6xQjb2f7dk2s9YnDqYv3kgAJkEB6EKBQTA+qrDPNBPAFPPv3ZdKqeV0VeZzmangjCZAACZAACZCADwQoFH2AyCpIgARIgARIgARIIB4JUCjGY6/ynUiABEiABEiABEjABwIUij5AZBUkQAIkQAIkQAIkEI8EKBTjsVf5TiRAAiRAAiRAAiTgAwEKRR8gsgoSIAESIAESIAESiEcCFIrx2Kt8JxIgARIgARIgARLwgQCFog8QWQUJkAAJkAAJkAAJxCMBCsV47FW+EwmQAAmQAAmQAAn4QIBC0QeIrIIESIAESIAESIAE4pEAhWI89irfiQRIgARIgARIgAR8IECh6ANEVkECJEACJEACJEAC8UiAQjEee5XvRAIkQAIkQAIkQAI+EKBQ9AEiqyABEiABEiABEiCBeCRAoRiPvcp3IgESIAESIAESIAEfCFAo+gCRVZAACZAACZAACZBAPBKgUIzHXuU7kQAJkAAJkAAJkIAPBP4fBsM48LLC+OoAAAAASUVORK5CYII=;" parent="1" vertex="1">
          <mxGeometry x="65" y="100" width="250" height="84.62" as="geometry" />
        </mxCell>
        <mxCell id="2rFWAWkbC2kj8gGZEwu1-88" value="&lt;font style=&quot;font-size: 26px;&quot;&gt;Der Tröt erreicht deine Instanz nicht.&lt;/font&gt;" style="points=[[0.25,0,0],[0.5,0,0],[0.75,0,0],[1,0.25,0],[1,0.5,0],[1,0.75,0],[0.75,1,0],[0.5,1,0],[0.25,1,0],[0,0.75,0],[0,0.5,0],[0,0.25,0]];shape=mxgraph.bpmn.task;whiteSpace=wrap;rectStyle=rounded;size=10;html=1;taskMarker=abstract;fontFamily=Roboto;fontSource=https%3A%2F%2Ffonts.googleapis.com%2Fcss%3Ffamily%3DRoboto;fontSize=18;rounded=0;align=left;spacingLeft=40;" parent="1" vertex="1">
          <mxGeometry x="270" y="585" width="320" height="70" as="geometry" />
        </mxCell>
      </root>
    </mxGraphModel>
  </diagram>
</mxfile>
